<?xml version="1.0" encoding="UTF-8"?>
<svg id="Layer_2" data-name="Layer 2" xmlns="http://www.w3.org/2000/svg" xmlns:xlink="http://www.w3.org/1999/xlink" viewBox="0 0 591.6 331.11">
  <defs>
    <style>
      .cls-1 {
        stroke-width: 1.47px;
      }

      .cls-1, .cls-2, .cls-3, .cls-4, .cls-5, .cls-6, .cls-7, .cls-8, .cls-9 {
        fill: none;
      }

      .cls-1, .cls-2, .cls-3, .cls-5, .cls-6, .cls-7, .cls-8, .cls-9 {
        stroke-linecap: round;
        stroke-linejoin: round;
      }

      .cls-1, .cls-8 {
        stroke: #fff;
      }

      .cls-2 {
        stroke-width: .85px;
      }

      .cls-2, .cls-3, .cls-6, .cls-9 {
        stroke: #503c6f;
      }

      .cls-3 {
        stroke-width: 1.34px;
      }

      .cls-10 {
        fill: #362f36;
      }

      .cls-10, .cls-11, .cls-4, .cls-12, .cls-13, .cls-14, .cls-15, .cls-16, .cls-17, .cls-18, .cls-19, .cls-20, .cls-21 {
        stroke-width: 0px;
      }

      .cls-11 {
        fill: #c2c0f2;
        opacity: .73;
      }

      .cls-12 {
        fill: #503c6f;
      }

      .cls-5 {
        stroke: #472a1c;
        stroke-width: .7px;
      }

      .cls-13 {
        fill: #fff;
      }

      .cls-14 {
        fill: #fff8f3;
      }

      .cls-6 {
        stroke-width: .89px;
      }

      .cls-7 {
        stroke: #a595fa;
      }

      .cls-7, .cls-8 {
        stroke-width: .98px;
      }

      .cls-15 {
        fill: #ffc05a;
      }

      .cls-22 {
        clip-path: url(#clippath);
      }

      .cls-16 {
        fill: #a595fa;
      }

      .cls-9 {
        stroke-width: 1.29px;
      }

      .cls-17 {
        fill: #2d1a14;
      }

      .cls-18 {
        fill: #f3725f;
      }

      .cls-19 {
        fill: #3c3430;
      }

      .cls-20 {
        fill: #d9d9fc;
      }

      .cls-21 {
        fill: #ffa9a9;
      }
    </style>
    <clipPath id="clippath">
      <ellipse class="cls-4" cx="299.54" cy="174.12" rx="77.57" ry="78.62"/>
    </clipPath>
  </defs>
  <g id="OBJECTS">
    <g>
      <g>
        <path class="cls-16" d="M514.31,140.52c22.53-1.61,1.62-29.37,13.98-38.4,12.22-8.92,37.37-8.52,27.96-31.06-3.04-7.28-9.26-10.31-7.99-18.86,1.52-10.26,13.17-16.29,17.42-25.27,8.97-18.94-11.59-33.71-28.14-23.69-6.18,3.74-12.38,11.94-13.93,19.17-1.62,7.53,3.5,14.5-1.93,21.56-8.52,11.06-27.21-.1-37.19,11.77-11.43,13.6,10.55,25.7,3.55,38.91-4.21,7.94-19.31,9.04-26.63,12.97-8.73,4.69-15.89,12.25-20.01,21.2-11.74,25.49,6.97,58.15,36.53,56.7,11.55-.57,22.05-6.48,29.07-15.61,7.58-9.86,6.38-21.4,7.3-29.38Z"/>
        <path class="cls-12" d="M549.3,16.74c0-.22-.12-.44-.33-.54-.29-.14-.63-.02-.77.28l-40.87,86.75-10.72,22.76c-.14.29-.01.64.27.78.29.14.63.02.77-.28l51.59-109.51c.04-.08.05-.16.06-.24Z"/>
        <path class="cls-12" d="M544.87,74.2c0-.06,0-.13-.03-.19-.1-.31-.42-.48-.72-.38l-26.6,8.42c-.3.1-.47.42-.38.73.1.31.42.48.72.38l26.6-8.42c.24-.08.4-.3.4-.54Z"/>
        <path class="cls-12" d="M541.32,33.54c0-.07,0-.14-.03-.21l-5.99-17.06c-.11-.3-.44-.46-.74-.36-.3.11-.46.44-.35.75l5.99,17.06c.11.3.44.46.74.36.23-.08.38-.3.38-.54Z"/>
        <path class="cls-12" d="M510.47,99.14c0-.07,0-.13-.03-.2l-8.85-25.2c-.1-.28-.41-.43-.69-.33-.28.1-.43.41-.33.7l8.85,25.2c.1.29.41.43.69.33.22-.08.35-.28.36-.5Z"/>
        <path class="cls-6" d="M437.07,256.02s-1.19-74.68,43.08-115.42"/>
        <path class="cls-6" d="M493.37,129.65c-2.08,2.67-4.49,5.07-7.17,7.13"/>
        <path class="cls-6" d="M468.79,105.05c-.17,15.71-.19,31.42-.07,47.13"/>
        <path class="cls-6" d="M524.9,123.22c-21.84,10.63-42.02,23.1-61.75,37.34"/>
      </g>
      <g>
        <g>
          <path class="cls-12" d="M537.09,164.25c12.2-3.43,41.32-5.1,50.1,6.3-11.28,5.84-44.3,7.06-52.67-5.78,1.34-.75,1.77.02,2.58-.52Z"/>
          <path class="cls-12" d="M554.97,141.86c6.55-8.26,25.29-23.62,36.63-20.25-4.78,9.43-26.34,26.39-38.11,21.86.54-1.16,1.2-.85,1.48-1.61Z"/>
          <path class="cls-12" d="M554.44,140.88c4.13-9.73,8.71-33.66.44-42.19-5.99,8.7-10.64,35.91-1.15,44.27.76-1.02.18-1.47.71-2.08Z"/>
          <path class="cls-12" d="M566.48,120.98c-.26-10.58,4.28-34.52,15.1-39.34,2.36,10.32-3.32,37.33-15.21,41.53-.33-1.24.37-1.43.1-2.2Z"/>
          <path class="cls-12" d="M535.39,161.01c3.45-12.32,5.25-41.73-5.99-50.65-5.83,11.37-7.2,44.73,5.46,53.26.75-1.35-.01-1.79.53-2.6Z"/>
          <path class="cls-12" d="M515.48,184.94c12.2-3.43,41.32-5.1,50.1,6.3-11.28,5.84-44.3,7.06-52.67-5.78,1.34-.75,1.77.02,2.58-.52Z"/>
          <path class="cls-12" d="M515.82,183.01c3.45-12.32,5.25-41.73-5.99-50.65-5.83,11.37-7.2,44.73,5.46,53.26.75-1.35-.01-1.79.53-2.6Z"/>
          <path class="cls-12" d="M493.41,202.9c12.2-3.43,41.32-5.1,50.1,6.3-11.28,5.84-44.3,7.06-52.67-5.78,1.34-.75,1.77.02,2.58-.52Z"/>
          <path class="cls-12" d="M491.71,199.66c3.45-12.32,5.25-41.73-5.99-50.65-5.83,11.37-7.2,44.73,5.46,53.26.75-1.35-.01-1.79.53-2.6Z"/>
        </g>
        <path class="cls-3" d="M571.19,107.34c.16,8.56-9.91,24.22-14.38,31.49-10.32,16.76-27.71,28.99-40.98,43.33-24.93,26.91-56.09,28.93-66.35,76.21"/>
      </g>
      <g>
        <path class="cls-16" d="M74.51,140.77c-21.73-1.55-1.56-28.32-13.48-37.02-11.78-8.6-36.03-8.21-26.95-29.95,2.93-7.02,8.92-9.94,7.7-18.19-1.47-9.89-12.7-15.71-16.8-24.36C16.34,12.99,36.16-1.25,52.12,8.41c5.95,3.61,11.94,11.51,13.43,18.48,1.56,7.26-3.38,13.98,1.86,20.78,8.21,10.66,26.24-.1,35.86,11.35,11.03,13.11-10.17,24.78-3.42,37.52,4.05,7.65,18.62,8.72,25.67,12.51,8.41,4.52,15.32,11.82,19.3,20.44,11.32,24.58-6.72,56.07-35.22,54.67-11.13-.55-21.26-6.25-28.03-15.05-7.31-9.5-6.16-20.63-7.04-28.33Z"/>
        <path class="cls-12" d="M40.78,21.44c0-.22.11-.42.32-.52.28-.13.61-.01.74.27l39.4,83.64,10.34,21.94c.13.28.01.62-.26.75-.28.13-.61.01-.74-.27L40.84,21.66c-.03-.07-.05-.15-.05-.23Z"/>
        <path class="cls-12" d="M45.06,76.84c0-.06,0-.12.02-.18.09-.3.41-.46.7-.37l25.65,8.12c.29.09.46.41.37.71-.09.3-.41.46-.7.37l-25.65-8.12c-.23-.07-.38-.29-.39-.52Z"/>
        <path class="cls-12" d="M48.48,37.63c0-.07,0-.14.03-.2l5.78-16.45c.1-.29.42-.45.71-.34.29.1.44.43.34.72l-5.78,16.45c-.1.29-.42.45-.71.34-.22-.08-.36-.29-.37-.52Z"/>
        <path class="cls-12" d="M78.22,100.88c0-.06,0-.13.03-.19l8.53-24.29c.1-.27.39-.42.67-.32.27.1.41.4.32.67l-8.53,24.29c-.1.27-.39.42-.67.32-.21-.08-.34-.27-.35-.48Z"/>
        <path class="cls-2" d="M148.99,252.13s1.14-72-41.53-111.28"/>
        <path class="cls-2" d="M94.71,130.3c2,2.57,4.33,4.89,6.91,6.87"/>
        <path class="cls-2" d="M118.41,106.58c.16,15.15.18,30.29.07,45.44"/>
        <path class="cls-2" d="M64.31,124.1c21.06,10.25,40.52,22.27,59.53,36"/>
      </g>
      <g>
        <g>
          <path class="cls-12" d="M52.55,163.65c-11.77-3.31-39.84-4.92-48.3,6.08,10.88,5.63,42.71,6.81,50.79-5.57-1.29-.73-1.7.02-2.49-.51Z"/>
          <path class="cls-12" d="M35.32,142.07c-6.31-7.97-24.38-22.77-35.32-19.53,4.6,9.09,25.4,25.44,36.74,21.08-.52-1.12-1.15-.82-1.43-1.55Z"/>
          <path class="cls-12" d="M35.83,141.12c-3.98-9.38-8.4-32.45-.42-40.68,5.77,8.39,10.25,34.62,1.11,42.68-.73-.99-.17-1.41-.69-2Z"/>
          <path class="cls-12" d="M24.22,121.94c.25-10.2-4.13-33.29-14.56-37.93-2.28,9.95,3.2,35.99,14.66,40.04.32-1.19-.36-1.38-.1-2.12Z"/>
          <path class="cls-12" d="M54.19,160.53c-3.33-11.87-5.06-40.24,5.78-48.84,5.62,10.96,6.95,43.12-5.27,51.35-.73-1.3.01-1.72-.51-2.51Z"/>
          <path class="cls-12" d="M73.39,183.61c-11.77-3.31-39.84-4.92-48.3,6.08,10.88,5.63,42.71,6.81,50.79-5.57-1.29-.73-1.7.02-2.49-.51Z"/>
          <path class="cls-12" d="M73.06,181.74c-3.33-11.87-5.06-40.24,5.78-48.84,5.62,10.96,6.95,43.12-5.27,51.35-.73-1.3.01-1.72-.51-2.51Z"/>
          <path class="cls-12" d="M94.67,200.92c-11.77-3.31-39.84-4.92-48.3,6.08,10.88,5.63,42.71,6.81,50.79-5.57-1.29-.73-1.7.02-2.49-.51Z"/>
          <path class="cls-12" d="M96.3,197.79c-3.33-11.87-5.06-40.24,5.78-48.84,5.62,10.96,6.95,43.12-5.27,51.35-.73-1.3.01-1.72-.51-2.51Z"/>
        </g>
        <path class="cls-9" d="M19.68,108.79c-.15,8.25,9.55,23.35,13.87,30.36,9.95,16.16,26.72,27.96,39.51,41.77,24.04,25.95,54.08,27.89,63.98,73.48"/>
      </g>
      <g>
        <path class="cls-19" d="M152.6,56.14h296.15c9.08,0,16.45,7.37,16.45,16.45v181.05c0,9.08-7.37,16.45-16.45,16.45H152.6c-9.08,0-16.45-7.37-16.45-16.45V72.59c0-9.08,7.37-16.45,16.45-16.45Z"/>
        <rect class="cls-16" x="147.99" y="70.37" width="305.8" height="184.76"/>
        <g>
          <path class="cls-20" d="M472.07,282.52H119.79c-7.38,0-13.42-6.8-13.42-15.11h0c0-8.31,6.04-15.11,13.42-15.11h352.28c7.38,0,13.42,6.8,13.42,15.11h0c0,8.31-6.04,15.11-13.42,15.11Z"/>
          <path class="cls-16" d="M172.52,274.64h-43.95c-1.77,0-3.21-1.63-3.21-3.62h0c0-1.99,1.45-3.62,3.21-3.62h43.95c1.77,0,3.21,1.63,3.21,3.62h0c0,1.99-1.45,3.62-3.21,3.62Z"/>
        </g>
      </g>
      <g>
        <path class="cls-12" d="M229.55,232.32l-125.52,96.95c-3.9,3.02-9.54,2.25-12.52-1.69h0c-2.98-3.94-2.23-9.64,1.67-12.65l125.52-96.95c3.9-3.01,9.54-2.25,12.52,1.69h0c2.98,3.94,2.23,9.64-1.67,12.65Z"/>
        <path class="cls-12" d="M146.93,273.41l-53.75,41.51c-3.9,3.01-4.66,8.71-1.67,12.65,2.98,3.94,8.62,4.71,12.52,1.69l54.42-42.03c-3.76-4.65-7.62-9.25-11.52-13.83Z"/>
        <path class="cls-12" d="M212.72,250.51c0,12.24-9.82,22.17-21.94,22.17s-21.94-9.93-21.94-22.17,9.82-22.17,21.94-22.17,21.94,9.93,21.94,22.17Z"/>
        <path class="cls-11" d="M382.01,173.86c0,46.33-37.15,83.9-83,83.9s-83-37.57-83-83.9,37.16-83.87,83-83.87,83,37.55,83,83.87Z"/>
        <path class="cls-12" d="M299.01,263.38c-48.83,0-88.56-40.16-88.56-89.52s39.73-89.5,88.56-89.5,88.56,40.15,88.56,89.5-39.73,89.52-88.56,89.52ZM299.01,95.61c-42.7,0-77.43,35.1-77.43,78.25s34.74,78.27,77.43,78.27,77.43-35.11,77.43-78.27-34.74-78.25-77.43-78.25Z"/>
        <line class="cls-7" x1="108.89" y1="299.72" x2="121.99" y2="317.58"/>
        <line class="cls-7" x1="122.64" y1="289.8" x2="135.74" y2="307.66"/>
        <line class="cls-7" x1="136.39" y1="279.87" x2="149.48" y2="297.74"/>
      </g>
      <g class="cls-22">
        <rect class="cls-21" x="212.88" y="53.65" width="170.41" height="237.33"/>
        <g>
          <path class="cls-13" d="M219.68,202.89h164.53c18.42,0,33.38,14.96,33.38,33.38v24.18c0,18.42-14.96,33.38-33.38,33.38h-164.53c-18.42,0-33.38-14.96-33.38-33.38v-24.18c0-18.42,14.96-33.38,33.38-33.38Z"/>
          <path class="cls-18" d="M283.09,154.97c-.07,4.48-3.7,8.05-8.12,7.98-4.42-.07-7.94-3.75-7.87-8.23s3.7-8.05,8.12-7.98c4.42.07,7.94,3.75,7.87,8.23Z"/>
          <path class="cls-18" d="M317.81,165.38c-.74,4.84-3.06,8.43-3.03,13.33.04,7.34-1.95,24.74,3.27,29.82-2.98,4.47-7.61,8.21-12.71,9.72-5.11,1.51-10.73,1.15-15.62-.99-1.33-.58-2.61-1.3-3.88-2-1.56-.87-3.12-1.74-4.68-2.61,6.24-11.8,3.74-31.09,1.52-44.29,3.29-.74,15.66,3.98,18.95,3.24,1.43-.32,2.87-.64,4.33-.63,2.32.02,9.58-5.11,11.85-5.58Z"/>
          <path class="cls-17" d="M310.91,127.65c-5.9,2.65-7.96,9.83-5.89,15.44,2.07,5.61,7.29,9.8,12.84,12.92.91-7.56,1.31-14.14,2.22-21.7.34-2.84.24-6.44-2.64-7.6-1.62-.65-4.94.23-6.54.95Z"/>
          <path class="cls-18" d="M321.74,135.75c.01.34.01.69.01,1.03l-.1,6.32-.07,4.58-.22,14.64-.05,3.3-.03,1.68c-.11,7.33-3.96,13.76-9.67,17.45-3.03,1.96-6.59,3.14-10.39,3.27-.34.01-.68.01-1.02,0-1.56-.03-3.07-.22-4.53-.58-.25-.06-.49-.12-.73-.2-.08-.02-.15-.04-.23-.07-.08-.02-.17-.05-.25-.08-.15-.04-.3-.09-.45-.14-.21-.07-.42-.14-.63-.22-.94-.35-1.85-.77-2.72-1.25-1.16-.64-2.25-1.38-3.26-2.22-.25-.21-.49-.42-.73-.63-.51-.47-1-.96-1.46-1.47-.19-.21-.37-.43-.56-.64-.11-.13-.22-.26-.32-.4-.2-.25-.39-.5-.58-.76-.86-1.19-1.6-2.48-2.2-3.84-.07-.15-.13-.3-.2-.45-.26-.63-.5-1.28-.69-1.95-.08-.27-.16-.55-.23-.83-.02-.07-.04-.14-.05-.21-.03-.11-.06-.23-.08-.35-.08-.33-.14-.66-.2-.99-.06-.31-.11-.63-.15-.94,0-.07-.02-.13-.02-.2-.03-.22-.05-.43-.07-.65,0-.07-.01-.14-.02-.22,0-.11-.02-.23-.03-.35-.02-.23-.03-.46-.03-.69-.01-.35-.02-.7-.01-1.05l.04-3.02.41-27.49c.04-2.68.58-5.23,1.52-7.58,3.14-7.8,10.78-13.28,19.56-13.15,7.8.12,14.57,4.65,18.02,11.2l.06.1c.11.22.23.45.33.68.02.05.05.1.07.15.1.22.2.44.29.67l.07.16c.11.27.22.54.32.82.05.14.1.28.15.41.05.14.09.28.14.42.04.14.08.28.13.42,0,0,0,0,0,.01.04.14.08.28.12.42.04.14.08.28.11.43.04.15.08.31.11.47.06.27.12.55.17.83.01.07.02.14.04.21.02.12.04.24.06.36.02.14.04.29.06.43,0,.06.02.12.02.18.01.1.02.19.03.29.01.08.02.16.03.25,0,.03,0,.06,0,.1.02.13.03.27.04.4.01.13.02.27.03.4.01.17.02.34.02.51Z"/>
          <path class="cls-10" d="M321.32,165.61l-.03,1.68c-.11,7.33-3.96,13.76-9.67,17.45-3.03,1.96-6.59,3.14-10.39,3.27-.34.01-.68.01-1.02,0-1.56-.03-3.07-.22-4.53-.58-.25-.06-.49-.12-.73-.2-.08-.02-.15-.04-.23-.07-.08-.02-.17-.05-.25-.08-.15-.04-.3-.09-.45-.14-.21-.07-.42-.14-.63-.22-.94-.35-1.85-.77-2.72-1.25-1.16-.64-2.25-1.38-3.26-2.22-.25-.21-.49-.42-.73-.63-.51-.47-1-.96-1.46-1.47-.19-.21-.37-.43-.56-.64-.11-.13-.22-.26-.32-.4-.2-.25-.39-.5-.58-.76-.86-1.19-1.6-2.48-2.2-3.84-.07-.15-.13-.3-.2-.45-.26-.63-.5-1.28-.69-1.95-.08-.27-.16-.55-.23-.83-.02-.07-.04-.14-.05-.21-.03-.11-.06-.23-.08-.35-.08-.33-.14-.66-.2-.99-.06-.31-.11-.63-.15-.94,0-.07-.02-.13-.02-.2-.03-.22-.05-.43-.07-.65,0-.07-.01-.14-.02-.22,0-.11-.02-.23-.03-.35-.02-.23-.03-.46-.03-.69-.01-.35-.02-.7-.01-1.05l.04-3.02c.78.22,1.69.5,1.83.55.99.42,1.93.94,2.81,1.56.88.61,1.7,1.31,2.45,2.06.41.41,1.37,1.98,1.96,1.97.41,0,.82-.62,1.11-.87.39-.35.8-.68,1.23-.99.87-.64,1.8-1.2,2.79-1.64,1.99-.91,4.19-1.35,6.37-1.21,4.2.27,7.64,2.8,10.11,6.08.58.77,1.45,1.13,2.31.53.25-.17.47-.4.66-.69,1.07-1.59,2.13-2.74,3.81-3.7.99-.56,2.04-1.01,3.11-1.4.1-.04.49-.15.96-.28Z"/>
          <path class="cls-18" d="M332.91,155.17c-.07,4.48-3.7,8.05-8.12,7.98-4.42-.07-7.94-3.75-7.87-8.23.07-4.48,3.7-8.05,8.12-7.98,4.42.07,7.94,3.75,7.87,8.23Z"/>
          <line class="cls-5" x1="330.04" y1="153" x2="323.47" y2="160.12"/>
          <line class="cls-5" x1="276.97" y1="152.92" x2="270.41" y2="160.04"/>
          <g>
            <path class="cls-13" d="M317.5,155.75c0,1.2-2.09,2.22-5.04,2.62-.86.12-1.8.18-2.79.18-1.15,0-2.25-.09-3.24-.25-2.71-.44-4.59-1.42-4.59-2.55,0-1.06,1.63-1.98,4.04-2.45,1.12-.22,2.41-.35,3.79-.35,1.24,0,2.41.1,3.45.29,2.59.46,4.38,1.41,4.37,2.52Z"/>
            <path class="cls-10" d="M313.88,155.33c.04,1.2-.51,2.29-1.41,3.05-.86.12-1.8.18-2.79.18-1.15,0-2.25-.09-3.24-.25-.77-.68-1.25-1.62-1.28-2.68-.03-.86.24-1.66.74-2.33,1.12-.22,2.41-.35,3.79-.35,1.24,0,2.41.1,3.45.29.45.6.72,1.32.75,2.09Z"/>
          </g>
          <g>
            <path class="cls-13" d="M297.91,155.81c0,1.2-2.09,2.22-5.04,2.62-.86.12-1.8.18-2.79.18-1.15,0-2.25-.09-3.24-.25-2.71-.44-4.59-1.42-4.59-2.55,0-1.06,1.63-1.98,4.04-2.45,1.12-.22,2.41-.35,3.79-.35,1.24,0,2.41.1,3.45.29,2.59.46,4.38,1.41,4.37,2.52Z"/>
            <path class="cls-10" d="M294.28,155.38c.04,1.2-.51,2.29-1.41,3.05-.86.12-1.8.18-2.79.18-1.15,0-2.25-.09-3.24-.25-.76-.68-1.25-1.62-1.28-2.68-.03-.86.24-1.66.74-2.33,1.12-.22,2.41-.35,3.79-.35,1.24,0,2.41.1,3.45.29.45.6.72,1.32.75,2.09Z"/>
          </g>
          <polygon class="cls-18" points="295.39 164.79 298.82 168.98 303.7 164.51 295.39 164.79"/>
          <path class="cls-18" d="M305.97,174.71c.06,1.89-2.52,3.52-5.77,3.63-3.25.11-5.94-1.33-6-3.22-.06-1.89,2.52-3.52,5.77-3.63,3.25-.11,5.94,1.33,6,3.22Z"/>
          <path class="cls-5" d="M296.66,173.33c2.23.81,4.76.74,6.94-.2"/>
          <path class="cls-10" d="M295.01,150.31l-7.14.25c-1.01.03-1.86-.77-1.9-1.8h0c-.03-1.02.76-1.89,1.77-1.92l7.14-.25c1.01-.03,1.86.77,1.9,1.8h0c.03,1.02-.76,1.89-1.77,1.92Z"/>
          <path class="cls-10" d="M312.57,149.51l-7.14.25c-1.01.03-1.86-.77-1.9-1.8h0c-.03-1.02.76-1.89,1.77-1.92l7.14-.25c1.01-.03,1.86.77,1.9,1.8h0c.03,1.02-.76,1.89-1.77,1.92Z"/>
        </g>
        <path class="cls-13" d="M280.98,196.95h39.5c3.19,0,5.78,2.59,5.78,5.78v15.78c0,3.19-2.59,5.78-5.78,5.78h-39.5c-3.19,0-5.78-2.59-5.78-5.78v-15.78c0-3.19,2.59-5.78,5.78-5.78Z"/>
        <path class="cls-15" d="M299.42,226.94h0c-4.2,0-7.64-3.47-7.64-7.72v-1.76c0-4.25,3.44-7.72,7.64-7.72h0c4.2,0,7.64,3.47,7.64,7.72v1.76c0,4.25-3.44,7.72-7.64,7.72Z"/>
        <path class="cls-15" d="M300.23,263.06h0c-1.98,0-3.6-1.64-3.6-3.64v-34.18c0-2,1.62-3.64,3.6-3.64h0c1.98,0,3.6,1.64,3.6,3.64v34.18c0,2-1.62,3.64-3.6,3.64Z"/>
      </g>
      <path class="cls-14" d="M445.27,105.3h-48.14c-1.17,0-2.12-.97-2.12-2.15h0c0-1.18.96-2.15,2.12-2.15h48.14c1.17,0,2.12.97,2.12,2.15h0c0,1.18-.96,2.15-2.12,2.15Z"/>
      <path class="cls-14" d="M444.84,114.77h-48.14c-1.17,0-2.12-.97-2.12-2.15h0c0-1.18.96-2.15,2.12-2.15h48.14c1.17,0,2.12.97,2.12,2.15h0c0,1.18-.96,2.15-2.12,2.15Z"/>
      <path class="cls-14" d="M444.84,124.89h-48.14c-1.17,0-2.12-.97-2.12-2.15h0c0-1.18.96-2.15,2.12-2.15h48.14c1.17,0,2.12.97,2.12,2.15h0c0,1.18-.96,2.15-2.12,2.15Z"/>
      <path class="cls-14" d="M445.7,147.21h-48.14c-1.17,0-2.12-.97-2.12-2.15h0c0-1.18.96-2.15,2.12-2.15h48.14c1.17,0,2.12.97,2.12,2.15h0c0,1.18-.96,2.15-2.12,2.15Z"/>
      <path class="cls-14" d="M445.28,156.67h-48.14c-1.17,0-2.12-.97-2.12-2.15h0c0-1.18.96-2.15,2.12-2.15h48.14c1.17,0,2.12.97,2.12,2.15h0c0,1.18-.96,2.15-2.12,2.15Z"/>
      <path class="cls-14" d="M445.28,166.79h-48.14c-1.17,0-2.12-.97-2.12-2.15h0c0-1.18.96-2.15,2.12-2.15h48.14c1.17,0,2.12.97,2.12,2.15h0c0,1.18-.96,2.15-2.12,2.15Z"/>
      <path class="cls-14" d="M444.39,184.26h-48.14c-1.17,0-2.12-.97-2.12-2.15h0c0-1.18.96-2.15,2.12-2.15h48.14c1.17,0,2.12.97,2.12,2.15h0c0,1.18-.96,2.15-2.12,2.15Z"/>
      <path class="cls-14" d="M443.97,193.73h-48.14c-1.17,0-2.12-.97-2.12-2.15h0c0-1.18.96-2.15,2.12-2.15h48.14c1.17,0,2.12.97,2.12,2.15h0c0,1.18-.96,2.15-2.12,2.15Z"/>
      <rect class="cls-14" x="393.7" y="199.55" width="52.39" height="4.29" rx="1.59" ry="1.59"/>
      <g>
        <polygon class="cls-13" points="381.36 80.66 383.04 84.1 386.8 84.65 384.08 87.34 384.72 91.12 381.36 89.33 377.99 91.12 378.63 87.34 375.91 84.65 379.67 84.1 381.36 80.66"/>
        <polygon class="cls-13" points="396.6 80.66 398.29 84.1 402.05 84.65 399.33 87.34 399.97 91.12 396.6 89.33 393.24 91.12 393.88 87.34 391.16 84.65 394.92 84.1 396.6 80.66"/>
        <polygon class="cls-13" points="410.94 80.66 412.62 84.1 416.38 84.65 413.66 87.34 414.3 91.12 410.94 89.33 407.57 91.12 408.21 87.34 405.49 84.65 409.25 84.1 410.94 80.66"/>
        <polygon class="cls-13" points="425.97 80.66 427.65 84.1 431.42 84.65 428.69 87.34 429.34 91.12 425.97 89.33 422.6 91.12 423.25 87.34 420.52 84.65 424.29 84.1 425.97 80.66"/>
        <polygon class="cls-13" points="440.3 80.66 441.99 84.1 445.75 84.65 443.03 87.34 443.67 91.12 440.3 89.33 436.94 91.12 437.58 87.34 434.86 84.65 438.62 84.1 440.3 80.66"/>
      </g>
      <path class="cls-13" d="M396.54,232.9c0,3.65-2.93,6.62-6.55,6.62s-6.55-2.96-6.55-6.62,2.93-6.62,6.55-6.62,6.55,2.96,6.55,6.62Z"/>
      <ellipse class="cls-13" cx="414.87" cy="232.9" rx="6.55" ry="6.62"/>
      <ellipse class="cls-13" cx="439.75" cy="232.45" rx="6.55" ry="6.62"/>
      <polygon class="cls-15" points="115.75 226.44 38.56 169.48 59.18 140.96 110.78 179.04 177.76 103.22 203.83 126.74 115.75 226.44"/>
      <g>
        <path class="cls-20" d="M152.76,29.11c0,5.12-4.1,9.26-9.17,9.26s-9.17-4.15-9.17-9.26,4.1-9.26,9.17-9.26,9.17,4.15,9.17,9.26Z"/>
        <path class="cls-20" d="M182.88,29.11c0,5.12-4.1,9.26-9.17,9.26s-9.17-4.15-9.17-9.26,4.1-9.26,9.17-9.26,9.17,4.15,9.17,9.26Z"/>
        <path class="cls-20" d="M212.99,29.11c0,5.12-4.1,9.26-9.17,9.26s-9.17-4.15-9.17-9.26,4.1-9.26,9.17-9.26,9.17,4.15,9.17,9.26Z"/>
      </g>
      <g>
        <path class="cls-20" d="M522.03,269.95c0,5.12-4.1,9.26-9.17,9.26s-9.17-4.15-9.17-9.26,4.1-9.26,9.17-9.26,9.17,4.15,9.17,9.26Z"/>
        <path class="cls-20" d="M552.15,269.95c0,5.12-4.1,9.26-9.17,9.26s-9.17-4.15-9.17-9.26,4.1-9.26,9.17-9.26,9.17,4.15,9.17,9.26Z"/>
        <path class="cls-20" d="M582.27,269.95c0,5.12-4.1,9.26-9.17,9.26s-9.17-4.15-9.17-9.26,4.1-9.26,9.17-9.26,9.17,4.15,9.17,9.26Z"/>
      </g>
      <path class="cls-5" d="M299.29,206.09c-5.2,8.27-15.26,11.33-24.3,8.27"/>
      <path class="cls-5" d="M299.44,205.64c5.2,8.27,15.26,11.33,24.3,8.27"/>
      <path class="cls-10" d="M321.9,137.62h-6.99v-6.84h-33.09c-11.07-1.57-20.85-7.56-29.53-14.69-3.84-3.15-7.5-6.63-10.16-10.84-2.66-4.21-4.61-9.29-3.76-14.22,2.57-14.95,23.39-18.42,33-8.74,4,4.03,6.73,9.31,7.73,14.93.56,3.15.6,6.46,1.91,9.39,1.3,2.92,4.44,5.39,7.49,4.52,1.85-.53,3.18-2.1,4.68-3.3,3.52-2.79,8.49-3.6,12.69-2.05s7.5,5.39,8.43,9.81c.56-1.92,3.05-3.02,4.87-2.24,1.83.78,2.95,2.72,3.33,4.69.38,1.97.13,3.99-.04,5.99-.41,4.74-.94,8.85-.56,13.59Z"/>
      <path class="cls-10" d="M281.05,65.48c-.01-3.88-.73-7.73-1.86-11.44-1.23-4.01-2.97-7.9-5.57-11.16-5.83-7.32-15.75-10.77-24.98-9.56-9.23,1.21-17.62,6.74-23.28,14.2-1.85,2.44-3.45,5.11-4.48,8.01-1.24,3.5-1.64,7.24-1.81,10.96-.23,5.1-.04,10.24.97,15.24,2.82,13.97,12.08,26.16,23.89,33.96s25.98,11.46,40.08,12.09c-4.06-5.64-3.97-13.18-4.17-20.16-.11-3.68-.42-7.43-1.54-10.95-.93-2.96-4.69-6.41-4.75-9.32-.06-2.9,4.14-7.2,5.26-10.04,1.47-3.75,2.26-7.78,2.25-11.82Z"/>
      <path class="cls-1" d="M237,43.67s-15.5,16.1-9.82,36.17"/>
      <path class="cls-1" d="M228.71,87.34s1.31,7.72,8.08,15.44"/>
      <path class="cls-1" d="M265.59,84.47s7.86,2.43,9.17,17.64"/>
      <path class="cls-10" d="M279.56,124.82c-1.94.27-4.01-.44-5.81.31-.89.37-1.62,1.06-2.19,1.84-1.42,1.91-2.04,4.41-1.66,6.77.38,2.36,1.73,4.54,3.68,5.9,2.32,1.63,5.56,2.28,6.83,4.82-.09-4.31.36-9.31,2.49-13.05.74-1.31,1.76-2.49,3.08-3.19-1.47-1.73-4.17-3.71-6.41-3.41Z"/>
      <path class="cls-10" d="M314.49,123.51c-2.46,1.05-4.24,3.45-4.84,6.08s-.09,5.45,1.13,7.85c1.62,3.17,4.36,5.58,7.03,7.91,1,.87,2.03,1.76,3.26,2.23.2-2.01,2.22-4.18,3.05-6.02,1.27-2.85,1.37-6.06,1.45-9.18.04-1.43.07-2.89-.43-4.23-.69-1.85-2.32-3.19-4.03-4.16-2.01-1.14-4.49-1.38-6.62-.47Z"/>
      <path class="cls-8" d="M277.37,151.07c-.41.95-.65,2-.65,3.11h0c0,3.99,2.96,7.26,6.58,7.26h8.65c3.62,0,6.59-3.27,6.59-7.26h0c0-1.11-.24-2.16-.65-3.11h-20.53Z"/>
      <path class="cls-8" d="M301.16,150.63c-.41.95-.65,2-.65,3.11h0c0,3.99,2.96,7.26,6.58,7.26h8.65c3.62,0,6.59-3.27,6.59-7.26h0c0-1.11-.24-2.16-.65-3.11h-20.53Z"/>
    </g>
  </g>
</svg>