<?xml version="1.0" encoding="UTF-8"?>
<svg id="Layer_2" data-name="Layer 2" xmlns="http://www.w3.org/2000/svg" viewBox="0 0 356.64 584.83">
  <defs>
    <style>
      .cls-1 {
        fill: none;
        stroke: #6d4776;
        stroke-miterlimit: 10;
        stroke-width: 2px;
      }
    </style>
  </defs>
  <g id="Background">
    <g>
      <path class="cls-1" d="M119.95,584.44c29.85-70.91,50.34-135.44,30.4-209.21-8.95-33.11-17.28-45.76,3.73-76.06,22.64-32.65,71.03-63.32,101.49-90.2,0,0,164.72-151.5,71.47-208.12"/>
      <path class="cls-1" d="M118.09,582.34c27.49-72.17,38.82-136.79,17.61-210.31-9.29-32.48-17.53-46.86,1.43-77.18,20.45-32.89,67.73-61.23,95.29-90.18,4.8-5.05,155.98-145.09,69.17-203.72"/>
      <path class="cls-1" d="M116.23,580.24c25.13-73.42,27.3-138.13,4.82-211.42-9.63-31.84-17.71-47.93-.87-78.31,18.34-33.08,62.2-61.45,89.09-90.16,9.53-10.17,147.24-138.67,66.87-199.33"/>
      <path class="cls-1" d="M114.37,578.14c22.76-74.68,15.59-139.41-7.98-212.52-10.05-31.18-17.94-49.02-3.16-79.43,16.18-33.31,56.67-61.68,82.89-90.13,14.17-15.37,138.5-132.25,64.57-194.93"/>
      <path class="cls-1" d="M112.5,576.04c20.4-75.93,4.04-140.75-20.77-213.62-10.4-30.54-18.17-50.12-5.46-80.56,14.01-33.54,51.13-61.89,76.69-90.11,18.71-20.65,129.76-125.83,62.26-190.53"/>
      <path class="cls-1" d="M110.64,573.95c18.04-77.19-7.48-142.09-33.56-214.73-10.73-29.9-18.42-51.23-7.76-81.68,11.83-33.79,45.58-62.1,70.49-90.09,23.16-26.02,121.01-119.42,59.96-186.14"/>
      <path class="cls-1" d="M108.78,571.85c15.67-78.44-18.98-143.43-46.36-215.83-11.06-29.26-18.68-52.34-10.06-82.81,9.63-34.03,40.03-62.3,64.29-90.07,27.51-31.48,112.27-113,57.66-181.74"/>
      <path class="cls-1" d="M106.92,569.75c13.31-79.69-30.46-144.79-59.15-216.94-11.38-28.63-18.95-53.46-12.35-83.93,7.42-34.28,34.47-62.5,58.09-90.04,31.75-37.02,103.53-106.58,55.36-177.34"/>
      <path class="cls-1" d="M105.05,567.65c10.94-80.95-41.83-146.2-71.94-218.04-11.66-28.02-19.28-54.58-14.65-85.06,5.13-34.54,28.91-62.69,51.9-90.02C106.23,131.87,165.14,74.36,123.41,1.58"/>
      <path class="cls-1" d="M103.19,565.55C115.05,451.92-7.84,370.51,1.51,260.22,9.71,163.43,153.03,118.42,97.96,1.67"/>
    </g>
  </g>
</svg>