<?xml version="1.0" encoding="UTF-8"?>
<svg id="Layer_2" data-name="Layer 2" xmlns="http://www.w3.org/2000/svg" viewBox="0 0 370.87 462.33">
  <defs>
    <style>
      .cls-1 {
        fill: #ffe6de;
      }

      .cls-1, .cls-2, .cls-3, .cls-4, .cls-5, .cls-6 {
        stroke-width: 0px;
      }

      .cls-2 {
        fill: #ffbfbf;
      }

      .cls-7 {
        opacity: .2;
      }

      .cls-3 {
        fill: #8380ff;
      }

      .cls-4 {
        fill: #fff;
      }

      .cls-8 {
        opacity: .3;
      }

      .cls-5 {
        fill: #421b36;
      }

      .cls-6 {
        fill: #a0d2f4;
      }
    </style>
  </defs>
  <g id="Background_Simple" data-name="Background Simple">
    <g>
      <path class="cls-1" d="M162.47,351.31c-17.73-.29-39.09-3.6-53.57-9.7s-19.6-9.76-31.24-20.31c-33.66-30.48-60.71-69.38-72.05-113.36C-5.75,163.96-.19,114.79,25.39,77.26,48.02,44.07,84.53,22.05,123.15,10.93,161.76-.19,202.57-1.23,242.7.89c29.63,1.57,57.78,11.24,78.91,32.07,17.28,17.04,31.99,44.06,39.17,67.25,12.54,40.54,20.81,102.02-21.93,172.16-34.47,56.57-130.36,81.47-176.38,78.94"/>
      <path class="cls-4" d="M279.87,208.52c-.53,1.18-11.09,25.29-11.09,25.29,0,0-23.39-11.95-19.26-2.92,4.13,9.03,9.23,22.56,9.23,22.56,0,0-20.78,6.14-15.66,8.75,5.12,2.61,21.18,7.54,21.18,7.54,0,0-8.81,30.09-1.65,23.92,7.16-6.18,15.81-16.69,15.81-16.69,0,0,39.59,18.03,33.26,11.16-6.32-6.87-18.27-24.84-18.27-24.84,0,0,33.17-21.45,26.95-23.53-6.22-2.08-30.45,1.2-30.45,1.2,0,0-8.86-35.06-10.04-32.44Z"/>
      <g>
        <path class="cls-4" d="M57.82,198.23c-2.17,0-4.37-.37-6.52-1.15-9.95-3.61-15.1-14.63-11.5-24.58,3.61-9.95,14.64-15.1,24.58-11.5h0c9.95,3.61,15.1,14.63,11.5,24.58-2.83,7.79-10.21,12.65-18.06,12.65ZM57.86,160.89c-7.42,0-14.4,4.59-17.08,11.96-3.41,9.41,1.47,19.83,10.87,23.25,9.41,3.41,19.83-1.46,23.25-10.87,3.41-9.41-1.47-19.83-10.87-23.25h0c-2.04-.74-4.12-1.09-6.17-1.09ZM57.75,191.84c-1.42,0-2.87-.24-4.29-.76h0c-3.17-1.15-5.69-3.46-7.12-6.51-1.43-3.05-1.58-6.47-.43-9.64,1.15-3.17,3.46-5.69,6.51-7.12,3.05-1.43,6.47-1.58,9.64-.43,3.17,1.15,5.69,3.46,7.12,6.51,1.43,3.05,1.58,6.47.43,9.64-1.86,5.12-6.71,8.31-11.86,8.31ZM53.82,190.11c6,2.17,12.64-.93,14.82-6.93,1.05-2.9.91-6.04-.4-8.84-1.31-2.8-3.63-4.92-6.53-5.97-2.91-1.05-6.04-.91-8.84.4-2.8,1.31-4.92,3.63-5.97,6.53-1.05,2.9-.91,6.04.4,8.84,1.31,2.8,3.63,4.92,6.53,5.97h0Z"/>
        <path class="cls-4" d="M64.2,161.49c-9.69-3.52-20.4,1.49-23.91,11.18-3.52,9.69,1.49,20.4,11.18,23.91l2.17-5.99c-6.27-2.28-9.52-9.21-7.24-15.48,2.28-6.27,9.21-9.52,15.48-7.24,3.14,1.14,5.52,3.44,6.83,6.24l6.62-1.58c-1.84-4.96-5.77-9.1-11.13-11.05Z"/>
      </g>
      <path class="cls-4" d="M80.31,252.17s-2.54-27.84,3.62-22.34c6.16,5.49,14.27,19.01,14.27,19.01l15.46-2.44c3.34-.53,5.57,3.34,3.44,5.97l-8.68,10.69s15.58,28.35,8.84,25.03c-6.74-3.32-22.98-11.32-22.98-11.32,0,0-4.97,27.09-8.77,18.82-3.8-8.27-5.7-28.41-5.7-28.41,0,0-30.67-8.7-20.6-10.15,10.07-1.44,21.11-4.87,21.11-4.87Z"/>
      <path class="cls-4" d="M310.67,82.42c-.3.68-6.35,14.48-6.35,14.48,0,0-13.4-6.84-11.03-1.67,2.36,5.17,5.29,12.92,5.29,12.92,0,0-11.9,3.52-8.97,5.01,2.93,1.5,12.13,4.32,12.13,4.32,0,0-5.05,17.23-.95,13.69,4.1-3.54,9.05-9.56,9.05-9.56,0,0,22.67,10.33,19.05,6.39-3.62-3.93-10.46-14.22-10.46-14.22,0,0,18.99-12.28,15.43-13.47-3.56-1.19-17.43.69-17.43.69,0,0-5.07-20.08-5.75-18.58Z"/>
      <path class="cls-4" d="M117.93,47.22l4.49-13.67,5.1,13.67s10.19,1.73,10.3,2.68c.12.93-9.75,3.84-9.75,3.84,0,0-4.14,13.26-5.65,10.25-1.51-3-2.98-9.65-2.98-9.65,0,0-12.83-2.66-12.83-3.97,0-1.42,11.32-3.15,11.32-3.15Z"/>
      <g>
        <path class="cls-4" d="M334.53,201.36c-2.89,0-5.84-.49-8.71-1.54-13.28-4.82-20.16-19.54-15.35-32.82,4.82-13.28,19.54-20.16,32.82-15.35,6.43,2.33,11.57,7.03,14.47,13.23,2.9,6.2,3.21,13.15.88,19.59-3.77,10.41-13.63,16.88-24.11,16.88ZM334.58,151.16c-10.05,0-19.51,6.22-23.13,16.2-4.62,12.74,1.99,26.86,14.72,31.48,12.74,4.62,26.86-1.98,31.48-14.72,2.24-6.17,1.94-12.84-.84-18.79-2.78-5.95-7.71-10.45-13.88-12.69-2.76-1-5.58-1.47-8.36-1.47ZM334.44,192.78c-1.89,0-3.82-.32-5.7-1.01h0c-4.21-1.53-7.57-4.6-9.47-8.66-1.9-4.06-2.1-8.61-.57-12.82,1.53-4.21,4.6-7.58,8.66-9.47,4.06-1.9,8.61-2.1,12.82-.57,4.21,1.53,7.57,4.6,9.47,8.66,1.9,4.06,2.1,8.61.57,12.82-2.47,6.81-8.92,11.05-15.78,11.05ZM334.45,160.27c-2.27,0-4.53.5-6.65,1.49-3.81,1.78-6.69,4.94-8.12,8.88-1.43,3.95-1.24,8.22.54,12.03,1.78,3.81,4.93,6.69,8.88,8.12h0c8.15,2.96,17.19-1.27,20.15-9.42,2.96-8.15-1.27-17.19-9.42-20.15-1.75-.64-3.56-.95-5.37-.95Z"/>
        <path class="cls-4" d="M343.11,152.15c-13.03-4.73-27.42,2.01-32.15,15.04-4.73,13.03,2.01,27.42,15.04,32.15l2.92-8.05c-8.44-3.06-12.79-12.38-9.73-20.82,3.06-8.44,12.38-12.8,20.82-9.74,4.22,1.53,7.42,4.62,9.18,8.39l8.9-2.12c-2.48-6.66-7.76-12.24-14.97-14.85Z"/>
      </g>
    </g>
  </g>
  <g id="Shape">
    <path class="cls-3" d="M71.6,159.87s-18.24-30.01-40.84-10.74c0,0,11.85-13.79,4.47-26.13s-18.96-19.12-18.96-19.12c0,0,22.46,3.1,29.96-9.31,10.32-17.05,6.67-27.34,6.67-27.34,0,0,11.65,12.16,24.15,13.35,12.5,1.2,19.22-9.48,19.22-9.48,0,0-10.81,20.06-2.38,33.02,8.43,12.96,21.74,18.4,21.74,18.4,0,0-21.24-3.96-34.31,14.31s-9.73,23.05-9.73,23.05Z"/>
  </g>
  <g id="Speech_Bubble" data-name="Speech Bubble">
    <g>
      <path class="cls-3" d="M263.88,36.28c2.78-3.64,8.59-5.56,14.3-5.95,5.47-.52,13.22-.23,17.42.45,4.48.73,9.02,2.47,11.82,6.04,3.8,4.84,3.74,11.6,3.11,17.72-.5,4.91-1.59,10.34-5.64,13.16-2.61,1.82-5.95,2.15-9.12,2.36-2.61.17-5.22.28-7.84.35-2.32,3.87-8.29,8.97-9.02,7.63-.66-1.21,1.5-4.77,1.18-7.56-.79,0-1.58-.02-2.36-.04-3.77-.08-7.73-.33-10.93-2.33-3.74-2.34-5.74-6.7-6.69-11.01-1.57-7.11-.64-15.03,3.78-20.81Z"/>
      <path class="cls-4" d="M290.7,49.96c.98-1.77,1.96-3.54,2.94-5.32.93-1.69,2.4-3.71,2.7-5.64.24-1.55-1.4-2.47-2.59-1.44-1.43,1.24-2.35,3.46-3.26,5.09-1.02,1.83-2.05,3.66-3.07,5.49-1.59,2.86-3.16,5.72-4.74,8.59-.7-.77-1.4-1.54-2.1-2.3-1.23-1.34-2.42-2.87-3.85-4-1.35-1.06-3.57.34-2.52,2,1.02,1.61,2.47,3.01,3.73,4.44,1.28,1.44,2.56,2.88,3.85,4.31.8.9,2.33.53,2.87-.43,2.01-3.6,4.05-7.18,6.04-10.79Z"/>
    </g>
  </g>
  <g id="Character">
    <g>
      <g>
        <path class="cls-2" d="M78.56,179.32s58.46-11.78,65.46-14.32c7-2.54,35.37-36.94,38.29-36.11,2.93.83,12.36,19.43,12.36,19.43,0,0-34.59,36.2-41.24,38.54-6.65,2.34-67.02,8.88-71.72,5.34-4.69-3.54-3.15-12.88-3.15-12.88Z"/>
        <path class="cls-5" d="M264.1,114.91c-1.37-3.45-2.39-7.03-3.03-10.69-2.46-14.17-5.87-42.97-8.02-46.2-2.59-3.89-6.51-6.78-10.81-8.62-4.58-1.96-9.63-2.79-14.59-2.41l-4.35,77.32c11.24,4.47,22.02,7.21,31.32,4.34,0,0-2.67-14.75-.68-12.98,1.99,1.77,4.03,11.71,6.26,11.98,2.24.28,8.06-2.22,8.06-2.22l-4.18-10.53Z"/>
        <path class="cls-2" d="M200,116.83c.33-.11,7.28-4.79,9.39-5.48s21.51,3.64,21.51,3.64c0,0-4.75,16.15-5.03,16.37-.28.22-11.01,1.41-11.01,1.41l-14.85-15.93Z"/>
        <g>
          <path class="cls-2" d="M211.46,57.57c9.33-12.55,29.14-10.5,35.75,3.66,2.09,4.48,2.93,10.39,2.62,18.25-.88,21.94-19.45,21.59-19.45,21.59l-3.43,17.91-25.11-6.33,10.08-20.21s-4.72-18.34-3.15-28.66c.35-2.3,1.33-4.37,2.7-6.21Z"/>
          <path class="cls-5" d="M239.83,67.64c0,.8-.59,1.46-1.31,1.46s-1.31-.65-1.31-1.46.59-1.46,1.31-1.46,1.31.65,1.31,1.46Z"/>
          <path class="cls-5" d="M225.93,67.64c0,.8-.59,1.46-1.31,1.46s-1.31-.65-1.31-1.46.59-1.46,1.31-1.46,1.31.65,1.31,1.46Z"/>
          <path class="cls-5" d="M219.22,61.06c1.37-.81,3.26-1.21,4.83-1.3,1.46-.09,2.78.35,4.21.5.82.09,1.03-1.11.4-1.49-3.18-1.91-7.22-.45-9.89,1.54-.44.33-.06,1.05.44.75h0Z"/>
          <path class="cls-5" d="M230.45,79.08c.48,3,4.57,3.74,6.86,2.43.77-.44.25-1.83-.62-1.48-1.11.45-2.19.71-3.36.28-.91-.33-1.64-1.02-2.4-1.6-.25-.19-.51.13-.48.37h0Z"/>
          <path class="cls-5" d="M204.02,124.25c1.98-4.71,6.93-21.75,7.69-28.32s-.77-23.02.33-29.25c1.1-6.23,13.01-14.29,17.84-17.32v-2.9c-5.99-2.1-12.7-.4-18.36,2.49-3.19,1.63-6.23,3.66-8.54,6.4-1.94,2.3-3.3,5.02-4.63,7.72-2.48,4.99-4.96,9.98-7.44,14.98,0,0-13.04,32.07-11.87,41.3,0,0,3.66,3.47,10.44,3.4,0,0,4.07-11.7,4.85-8.8s-1.74,8.98-.19,9.82c1.55.84,9.89.5,9.89.5Z"/>
          <g class="cls-7">
            <path class="cls-5" d="M228.11,74.03c0,1.19-1.87,2.16-4.17,2.16s-4.17-.97-4.17-2.16,1.87-2.16,4.17-2.16,4.17.97,4.17,2.16Z"/>
          </g>
          <g class="cls-7">
            <path class="cls-5" d="M247.32,74.03c0,1.19-1.87,2.16-4.17,2.16s-4.17-.97-4.17-2.16,1.87-2.16,4.17-2.16,4.17.97,4.17,2.16Z"/>
          </g>
          <path class="cls-2" d="M204.92,73.99c-2.67-1.52-4.45-.81-5.56.02-1.11.82-1.79,2.11-2.12,3.45-.55,2.22-.11,4.75,1.43,6.44,1.55,1.69,4.26,2.31,6.25,1.18v-11.08Z"/>
          <path class="cls-5" d="M200.53,79.83c.38-.25,1.27-.37,1.71-.37.73,0,1.19.36,1.69.84.59.56,1.58-.15,1.14-.88-.52-.88-1.59-1.4-2.6-1.37-.48.01-1.02.16-1.42.44-.47.33-.48.68-.71,1.17-.05.11.06.26.18.18h0Z"/>
          <path class="cls-5" d="M242.45,58.73c-2.45-2.78-6.73-2.29-8.54.85-2.54,4.41-.45,11.57,2.21,15.48.61.9,1.89.13,1.44-.84-1.45-3.14-2.94-6.32-3.01-9.85-.05-2.46.55-5.33,3.44-5.88,1.2-.23,2.98.22,4.06.77.34.17.66-.24.4-.52h0Z"/>
          <path class="cls-5" d="M230.59,47.64c2.07-1.49,3.75-3.2,6.25-4.01,2.83-.91,5.38-.36,8.17.32.58.14.94-.66.41-.98-4.68-2.78-13.12-1.02-14.98,4.56-.03.08.07.16.14.11h0Z"/>
          <path class="cls-5" d="M240.33,38.1c-6.17.09-10.89,4.3-11.98,10.37-.16.9,1.21,1.28,1.37.38.96-5.42,5.24-9.51,10.65-10.47.16-.03.12-.28-.04-.28h0Z"/>
          <path class="cls-5" d="M222.93,100.18c1.87,2.51,6.78,3.04,9.65,2.63.92-.13.59-1.43-.2-1.51-1.72-.16-3.36-.24-5.05-.69-1.32-.35-2.65-1.05-4.02-1.09-.31,0-.58.39-.38.66h0Z"/>
          <path class="cls-5" d="M255.49,76.88c1.27,14.95,4.7,30.53,13.72,42.87.65.89,1.94.15,1.48-.86-6.26-13.68-12.41-27.04-14.52-42.1-.05-.38-.71-.29-.68.09h0Z"/>
        </g>
        <g>
          <g>
            <g>
              <path class="cls-2" d="M263.01,437.74c-.78-.57-1.77-.91-2.56-1.62-3.59-3.2-6.87-7.97-8.43-12.37-1.91-5.37,4.5-25.88,5.01-26.39l-22.74,4.7s1.55,18.61.72,24.58c-.82,5.97-5.92,20.63-4.1,24.27,1.81,3.65,28.13,8.52,38.02,9.4,15.37,1.37,20.86-5.16,20.96-7.13.07-1.35-22.53-12.3-26.88-15.44Z"/>
              <path class="cls-6" d="M289.6,452.71c-.47-.39-.94-.7-1.8-1.24,0,0,.04-.1,0,0-.33.2-10.31,5.98-27.39,5.04-17.38-.96-30.43-10.83-30.43-10.83-.32,2.3-.39,4.28.12,5.3.06.12.14.23.24.35.21.24.51.48.89.72,5.56,3.51,28.3,7.65,37.39,8.46,11.97,1.07,17.9-2.56,20.18-5.21,1.14-1.4,1.29-2.17.8-2.58Z"/>
            </g>
            <path class="cls-3" d="M284.15,449.33l-20.91-11.6c-2.13-1.25-4.28-3.48-6.44-6.2,0,0,.2-.14,0,0-2.29-5.84-7.38-6.48-10.06-3.17-1.78,2.2-2.04,5.71-1.98,8.04-.25.01-.5.03-.75.02-6.43-.1-10.72-4.8-10.72-4.8-1.31,5.04-2.6,10.28-3.11,13.76,0,0,13.64,10.32,30.79,11.27,17.15.95,27.08-5.16,27.08-5.16l-3.91-2.17Z"/>
            <path class="cls-5" d="M250.54,441.23c1.34-.94,2.35-2.27,3.69-3.24,1.49-1.07,3.1-1.76,4.82-2.36.89-.31.53-1.57-.39-1.41-3.23.58-7.77,3.28-8.36,6.82-.02.12.11.27.23.18h0Z"/>
            <path class="cls-5" d="M257.9,444.43c2.21-1.67,3.91-3.91,6.78-4.47.94-.18.71-1.66-.22-1.65-1.68.01-3.26.97-4.47,2.07-1.08.98-2.3,2.38-2.35,3.89,0,.12.16.23.26.15h0Z"/>
            <path class="cls-5" d="M264.69,447.77c1.05-.71,1.67-1.92,2.59-2.79,1.06-1,2.29-1.41,3.54-2.09.97-.53.25-1.79-.7-1.65-2.5.36-6.19,3.42-6.12,6.14,0,.32.39.59.68.39h0Z"/>
            <path class="cls-4" d="M242.36,445.1c2.67,1.48,5.57,2.27,8.58,2.67.72.1.9-1.17.17-1.28-2.89-.44-5.69-1.17-8.51-1.95-.33-.09-.54.39-.23.56h0Z"/>
          </g>
          <path class="cls-5" d="M230.51,446.23c13.13,9.71,29.76,13.36,45.78,10.28,4.19-.81,8.58-1.89,12-4.56.66-.51-.27-1.43-.92-.92-3.05,2.38-7.05,3.33-10.77,4.09-3.81.77-7.69,1.17-11.58,1.18-7.71.02-15.42-1.53-22.49-4.61-4.03-1.75-7.82-3.99-11.35-6.6-.67-.5-1.32.63-.66,1.12h0Z"/>
        </g>
        <g>
          <path class="cls-2" d="M173.78,412c.25.76.79,10.83-2.21,18.38s15.82,9.84,15.82,9.84c0,0,3.41-20.58,5.06-26.81,1.65-6.23-18.66-1.41-18.66-1.41Z"/>
          <path class="cls-6" d="M152.01,455.09s.04,2.42.55,4.58c.51,2.16,8.01,3.18,17.8,2.42,9.79-.76,15.26-5.47,15.64-5.97.38-.51,1.1-7.98,1.1-7.98l-35.08,6.96Z"/>
          <path class="cls-3" d="M172,429.79c-.35.3-9.53,14.24-12.59,16.4-3.05,2.16-7.88,5.34-7.37,9.66.51,4.32,18.94,3.05,26.06,1.02,7.12-2.03,6.99-1.14,8.14-3.69,1.14-2.54,1.14-12.84,1.14-14.24s-4.96-17.92-15.38-9.15Z"/>
          <path class="cls-5" d="M162.71,442.68c3.43-.97,7.53-.91,10.59,1.1.51.33.2,1.26-.44,1.03-3.34-1.22-6.32-1.96-9.88-1.13-.65.15-.92-.82-.28-1h0Z"/>
          <path class="cls-5" d="M166.32,439.17c3.11-1.07,6.72-.32,9.64.97.69.31.19,1.52-.52,1.23-3.03-1.21-5.83-1.39-9.04-1.62-.34-.02-.4-.47-.08-.59h0Z"/>
          <path class="cls-5" d="M169.36,435.37c3.2-1.02,6.47-.92,9.62.22.87.31.48,1.72-.38,1.39-2.91-1.11-5.94-1.35-9-.75-.56.11-.79-.68-.24-.86h0Z"/>
          <path class="cls-5" d="M151.42,456.42c1.25,2.15,3.79,2.51,6.06,2.75,3.62.37,7.27.55,10.9.32,6.55-.4,13.08-2.16,18.48-6,.68-.48.03-1.61-.66-1.12-4.94,3.51-10.83,5.26-16.83,5.75-3.05.25-6.12.2-9.17-.01-2.35-.17-6.27.02-7.65-2.34-.42-.72-1.55-.07-1.12.66h0Z"/>
        </g>
        <g>
          <path class="cls-3" d="M266.56,262.23c-.7-16.76-4.3-35.26-8.28-48.79-2.62-8.9-10.83-28.94-10.83-28.94l-47.17.18s-18.07,26.79-21.68,37.71c-5.28,15.95-9.15,41.57-10.55,69.71-1.33,26.87-3.7,46.65-4.38,56.22-.72,10.09-4.73,59.59-4.56,66.9.16,7.04,43.39,6.42,47.6,0,3.81-5.79,14.54-127.63,16.92-153.15l2.24-1.23c-.53-.32-4.38,94.58-4.38,94.58l-1.88,59.72c2.46,4.97,46.44,4.27,47.67-.28,1.23-4.55-.02-135.88-.72-152.64Z"/>
          <path class="cls-5" d="M224.4,417.13c.3-20.24.57-40.49.82-60.73.25-20.04.5-40.09.76-60.13.15-11.47.31-22.93.48-34.4.01-.84-1.29-.84-1.3,0-.3,20.24-.57,40.49-.82,60.73-.25,20.04-.5,40.09-.76,60.13-.15,11.47-.31,22.93-.48,34.4-.01.84,1.29.84,1.3,0h0Z"/>
        </g>
        <g>
          <path class="cls-6" d="M239.64,116.06c2.68,2.64,12.93,20.42,12.94,34.68,0,10.94-3.49,40.24-3.49,40.24,0,0-46.65-1.21-52.29-4.96s1.81-72.58,1.81-72.58c1.08-2.1,17.66-.79,17.66-.79.52.71,6.17,6.45,6.17,6.45,0,0,5.29-5.75,6.18-5.66,6.89.67,9.75,1.36,11.03,2.62Z"/>
          <path class="cls-6" d="M237.91,115.98s11.9-.56,25.69,15.98c13.78,16.54,15.93,20.53,13.17,23.44-2.76,2.91-22.61,14.54-25.7,10.87-3.09-3.68-13.16-50.28-13.16-50.28Z"/>
        </g>
        <path class="cls-6" d="M198.59,113.44s-5.27-1.19-19.63,9.79c-11.92,9.11-20.85,17.04-21.19,22.88s18.16,27.19,22.76,24.98c1.68-.81,12.79-7.08,15.38-15.1,1.07-3.32,2.68-42.55,2.68-42.55Z"/>
        <path class="cls-6" d="M202.19,112.75c.38-.91,5.33-8.31,7.58-7.91,2.24.4,9.35,8.41,9.17,10.39-.19,1.98-4.21,6.14-4.21,6.14l-12.53-8.61Z"/>
        <path class="cls-6" d="M229.09,107.78c.04-.23,7.22,2.22,7.33,4.06.11,1.84,0,7.48,0,7.48l-10.1-1.08,2.77-10.46Z"/>
        <path class="cls-5" d="M202.35,113.29c1.27,2.11,2.51,4.26,3.67,6.44.37.69.72,1.38,1.06,2.08.29.61.6,1.45,1.39,1.51.81.06,1.49-.84,2.03-1.32.81-.74,1.63-1.47,2.45-2.21,1.91-1.71,3.82-3.42,5.71-5.15.37-.34-.18-.89-.55-.55-1.89,1.73-3.81,3.44-5.71,5.15-.97.87-1.94,1.75-2.91,2.63-.18.17-.4.45-.62.54-.63.27-.81-.34-.98-.7-.17-.36-.34-.72-.52-1.08-1.33-2.64-2.82-5.2-4.34-7.73-.26-.43-.93-.04-.67.39h0Z"/>
        <path class="cls-5" d="M217.39,113.59c2.17,3.09,4.05,6.39,5.6,9.83.21.46.88.06.67-.39-1.55-3.45-3.42-6.74-5.6-9.83-.29-.41-.96-.02-.67.39h0Z"/>
        <path class="cls-5" d="M224.44,123.21c3.1-4.41,7.03-8.21,11.54-11.18.42-.27.03-.95-.39-.67-4.62,3.04-8.63,6.93-11.82,11.46-.29.41.39.8.67.39h0Z"/>
        <path class="cls-5" d="M235.88,111.84c.27,2.77.41,5.54.41,8.32.2-.11.39-.22.59-.34-2.1-1.04-3.96-2.59-5.71-4.13-.38-.33-.93.22-.55.55,1.8,1.58,3.71,3.18,5.87,4.25.26.13.59-.03.59-.34,0-2.78-.14-5.56-.41-8.32-.05-.5-.83-.5-.78,0h0Z"/>
        <path class="cls-5" d="M223.29,122.75c1.03,17.21,1.1,34.48.2,51.69-.26,4.88-.59,9.76-1,14.63-.04.5.74.5.78,0,1.44-17.18,1.94-34.44,1.45-51.67-.14-4.89-.36-9.77-.65-14.65-.03-.5-.81-.5-.78,0h0Z"/>
        <path class="cls-5" d="M251.75,168.81c4.48-10.52,4.02-22.74-1.27-32.89-.23-.45-.91-.05-.67.39,5.14,9.87,5.63,21.85,1.27,32.1-.19.46.48.86.67.39h0Z"/>
        <path class="cls-5" d="M194.88,167.59c.12-8.1.24-16.2.36-24.29,0-.5-.77-.5-.78,0-.12,8.1-.24,16.2-.36,24.29,0,.5.77.5.78,0h0Z"/>
      </g>
      <path class="cls-2" d="M277.07,154.58s17.71,19.95,16.96,27.18c-.75,7.23-7.44,14.52-15.91,12.51-8.47-2.01-34.99-24.72-34.99-24.72l-5.22-15.65,26.31,9.8,12.86-9.13Z"/>
      <g>
        <g>
          <path class="cls-4" d="M187.51,47.94c-4.42-2.37-128.81,52.09-146.66,63.63,16.01,42.91,56.67,132.61,93.59,215.01,7.28,4.39,130.69-49.98,148.2-67.16,4.35-4.27-90.4-208.94-95.14-211.48Z"/>
          <path class="cls-5" d="M135.76,327.33c-.71,0-1.25-.1-1.58-.3l-.14-.08-.07-.15c-4.1-9.16-8.25-18.41-12.41-27.67C88.64,225.76,54.6,149.9,40.36,111.75l-.15-.39.35-.23c9.43-6.1,47.27-23.5,78.44-37.08,15.31-6.67,65.52-28.32,68.75-26.58h0c2.86,1.53,31.33,61.94,48.6,99.65,21.81,47.61,45.58,101.77,46.89,110.97.13.89.06,1.4-.24,1.69-9.45,9.27-47.97,28.3-78.08,41.77-22.34,10-60.08,25.76-69.16,25.76ZM134.84,326.2c7.82,3.18,129.41-49.46,147.43-67.15,1.14-2.72-16.76-45.53-44.58-106.47-25.02-54.81-48.09-102.45-50.44-104.18-5.04-1.69-126.3,51.1-145.77,63.38,14.31,38.25,48.22,113.82,81.02,186.91,4.13,9.21,8.26,18.4,12.34,27.5Z"/>
        </g>
        <path class="cls-6" d="M72.31,136.49s18.87,48.78,23.96,51.44c5.1,2.66,58.11-20.74,57.4-26.7-.7-5.96-21.12-49.34-24.55-51.91-5.72-4.28-59.07,21.88-56.82,27.17Z"/>
        <g>
          <path class="cls-2" d="M67.89,190.74s-2.78-2.64-2.66-4.97c.15-3.01,4.33-9.93,7.35-10.29,3.02-.36,3.98,3.29,2.97,4.59-1.01,1.3-4.09,3.98-4.72,5.49-.57,1.37.24,1.95.24,1.95,0,0,5.8-5.94,8.84-4.76,3.04,1.18,1.61,3.83,1.61,3.83,0,0,4.68,1.4,1.59,6.01,0,0,1.32,2.17.25,4.31-1.07,2.14-5.81,6.18-5.81,6.18,0,0,2.99,3.94,2.4,4.38-1.99,1.46-9.75-3.17-9.02-6.14,0,0-2.35-2.54-2-4.87l.31-1.1s-2.61-2.41-1.35-4.62Z"/>
          <path class="cls-5" d="M83.24,192.17c-.79-.81-1.96-1.02-3.04-.76-1.26.31-2.22,1.28-3.08,2.19-2.13,2.27-4.24,4.55-6.36,6.83-.57.61.35,1.53.92.92l5.43-5.83c.79-.84,1.55-1.83,2.53-2.45.81-.51,1.94-.74,2.68.02.58.6,1.5-.32.92-.92h0Z"/>
          <path class="cls-5" d="M82.13,186.19c-2.72-.44-5.38.5-7.53,2.16-2.27,1.75-3.88,4.16-5.4,6.55-.45.71.67,1.36,1.12.66,2.49-3.89,6.14-8.96,11.47-8.11.82.13,1.17-1.12.35-1.25h0Z"/>
          <path class="cls-5" d="M70.89,187.17c-1.46.81-2.57,2.11-3.21,3.64-.13.32.14.73.45.8.38.09.66-.12.8-.45-.06.15,0,0,.01-.03.02-.04.03-.08.05-.11.04-.08.08-.17.12-.25.08-.15.16-.3.25-.44.05-.08.1-.16.15-.23.05-.07.1-.17.16-.23-.06.05-.04.05,0,0,.03-.03.05-.07.08-.1.06-.07.12-.14.18-.21.24-.26.49-.51.77-.73.06-.04.07-.07,0,0,.03-.03.08-.06.12-.09.07-.05.14-.1.21-.14.15-.1.31-.2.48-.29.3-.16.42-.6.23-.89-.19-.3-.57-.41-.89-.23h0Z"/>
          <path class="cls-5" d="M69.58,177.8c.52,1.22,1.97,1.89,3.24,1.6,1.31-.3,2.29-1.68,2.15-3.01-.04-.34-.27-.67-.65-.65-.32.01-.69.29-.65.65.01.12.02.23.01.35,0,.05-.03.17,0,.06-.01.07-.03.13-.04.2-.02.06-.03.11-.05.17,0,.03-.02.06-.03.08.02-.06.03-.06,0-.02-.05.11-.11.21-.18.31-.02.02-.03.05-.05.07.04-.05.04-.05.01-.02-.04.05-.09.1-.14.15-.04.04-.09.08-.13.12-.1.09.07-.03-.05.04-.1.06-.2.12-.3.17.1-.05-.03,0-.06.02-.06.02-.11.03-.17.05-.02,0-.2.03-.05.01-.06,0-.11,0-.17.01-.06,0-.11,0-.17,0-.02,0-.2-.03-.05,0-.11-.02-.22-.04-.33-.08-.05-.02-.11-.04-.16-.06.13.05-.02-.01-.05-.03-.1-.05-.2-.11-.29-.18.11.08-.02-.02-.05-.04-.04-.04-.08-.08-.12-.12-.01-.01-.14-.16-.1-.1.05.06-.05-.08-.06-.09-.07-.1-.12-.21-.17-.33-.14-.32-.61-.39-.89-.23-.33.2-.37.57-.23.89h0Z"/>
          <path class="cls-5" d="M76.33,183.7c.22,1.29,1.37,2.28,2.64,2.41,1.32.13,2.53-.75,3-1.94.13-.33-.14-.71-.45-.8-.37-.1-.67.13-.8.45.04-.11-.03.06-.04.07-.02.05-.05.09-.08.13s-.06.09-.09.13c.07-.1-.05.06-.05.06-.07.08-.15.15-.22.22-.13.12.09-.05-.07.05-.04.03-.09.06-.13.08-.04.03-.09.05-.14.08,0,0-.19.08-.07.04-.1.04-.2.07-.3.09-.06.01-.12.03-.18.04.1-.01,0,0-.04,0-.11,0-.23,0-.34,0,.1.01,0,0-.04-.01-.05-.01-.1-.02-.15-.04-.06-.02-.12-.04-.18-.06.09.03,0,0-.04-.02-.1-.05-.2-.11-.29-.18-.09-.06,0,.01-.04-.03-.04-.03-.08-.07-.12-.1-.04-.04-.09-.09-.13-.13,0-.01-.11-.13-.07-.08.04.06-.05-.07-.06-.09-.03-.05-.07-.11-.1-.16-.02-.05-.05-.09-.07-.14-.03-.06.02.06-.01-.05-.04-.12-.07-.24-.09-.36-.06-.35-.49-.54-.8-.45-.37.1-.51.45-.45.8h0Z"/>
          <path class="cls-5" d="M77.71,188.04c.1.81.46,1.54,1.1,2.06.61.51,1.41.82,2.21.75,1.61-.15,2.95-1.67,2.81-3.3-.03-.35-.28-.65-.65-.65-.33,0-.68.3-.65.65.01.15.02.29,0,.44,0,.05,0,.04,0,0,0,.03-.01.07-.02.1-.02.08-.04.15-.06.23,0,.02-.07.19-.03.09-.03.06-.06.12-.09.18-.03.06-.07.12-.1.17,0,0-.12.16-.06.09-.19.23-.35.37-.55.49-.16.1-.17.1-.3.14-.06.02-.13.04-.19.05-.02,0-.21.03-.09.02-.13.02-.27.01-.4,0-.14-.01.03.02-.09-.02-.06-.02-.13-.03-.19-.05-.18-.05-.16-.05-.31-.13-.06-.03-.12-.07-.17-.1-.02-.01-.18-.13-.11-.08-.22-.17-.36-.34-.48-.52-.04-.06-.07-.12-.1-.18-.07-.12,0,.03-.04-.09-.03-.07-.05-.15-.07-.22,0-.02-.04-.23-.03-.13-.04-.35-.27-.65-.65-.65-.32,0-.69.3-.65.65h0Z"/>
          <path class="cls-5" d="M77.93,193.51c.27,1.46,1.64,2.59,3.11,2.63,1.48.03,2.88-1.08,3.21-2.51.08-.34-.11-.7-.45-.8-.33-.09-.72.11-.8.45-.21.9-1.05,1.57-1.96,1.55-.06,0-.12,0-.18-.01-.05,0-.05,0,0,0-.03,0-.07-.01-.1-.02-.13-.03-.25-.06-.37-.11.08.03-.11-.05-.1-.05-.05-.03-.1-.06-.15-.09-.12-.07-.18-.12-.24-.17-.4-.35-.61-.69-.7-1.22-.06-.35-.48-.54-.8-.45-.36.1-.52.45-.45.8h0Z"/>
        </g>
        <g>
          <path class="cls-2" d="M235.96,144.71s-.48-3.81-2.42-5.09c-2.51-1.67-10.56-2.41-12.64-.2-2.09,2.22.28,5.16,1.93,5.12,1.65-.04,5.63-.93,7.22-.53,1.44.36,1.42,1.35,1.42,1.35,0,0-8.22,1.14-9.08,4.29-.85,3.15,2.13,3.56,2.13,3.56,0,0-1.65,4.6,3.9,4.85,0,0,.97,2.35,3.32,2.76,2.35.41,8.42-1.01,8.42-1.01,0,0,2.07,3.31,2.77,3.09,2.36-.73,2.56-8.28-.26-9.46,0,0-.65-3.4-2.73-4.5l-1.07-.41s-.39-3.53-2.91-3.83Z"/>
          <path class="cls-5" d="M229.28,157.64c-.18-1.14.98-1.92,1.91-2.2,1.08-.32,2.25-.37,3.37-.5,2.53-.29,5.07-.58,7.6-.87.82-.09.83-1.4,0-1.3-3.13.36-6.26.71-9.39,1.08-1.21.15-2.48.33-3.48,1.11-.95.74-1.46,1.83-1.27,3.03.13.82,1.39.47,1.25-.35h0Z"/>
          <path class="cls-5" d="M225.02,154.02c2.52-4.88,8.73-4.82,13.45-4.5.84.06.83-1.25,0-1.3-5.2-.35-11.82-.17-14.57,5.15-.38.74.74,1.4,1.12.66h0Z"/>
          <path class="cls-5" d="M231.9,146.16c.26-.12.6-.24.93-.32.32-.08.65-.14.92-.17.71-.06,1.35-.02,2,.14.33.08.72-.1.8-.45.08-.34-.1-.71-.45-.8-1.63-.4-3.32-.22-4.85.48-.32.15-.4.61-.23.89.19.33.57.38.89.23h0Z"/>
          <path class="cls-5" d="M223.39,138.97c.03.05.06.11.09.16.03.07.03.05,0-.03.01.03.02.06.03.09.04.12.07.23.09.35.01.07,0,.06,0-.04,0,.03,0,.06,0,.09,0,.06,0,.12,0,.18,0,.05,0,.09,0,.14,0,.03,0,.06,0,.09.01-.1.02-.11,0-.04-.03.12-.05.24-.09.36,0,.03-.02.06-.03.09-.03.07-.02.06.01-.03,0,.04-.06.13-.08.16-.02.04-.05.08-.07.12-.02.03-.03.05-.05.08-.04.06-.04.05.02-.02-.04.1-.18.19-.25.26-.05.04-.05.04.02-.02-.02.02-.05.04-.08.05-.05.03-.1.07-.16.1-.02,0-.18.09-.09.05.09-.04-.08.03-.1.03-.09.03-.26.11-.36.09.1-.01.11-.01.03,0-.03,0-.06,0-.09,0-.06,0-.12,0-.19,0-.04,0-.15.01-.19-.01.09.01.11.02.06,0-.02,0-.05,0-.07-.01-.12-.02-.24-.06-.36-.1-.07-.03-.06-.02.03.01-.03-.01-.06-.03-.08-.04-.06-.03-.11-.06-.16-.09-.05-.03-.12-.06-.15-.1.07.06.08.06.02.02-.02-.02-.05-.04-.07-.06-.25-.23-.68-.27-.92,0-.23.25-.27.67,0,.92.77.71,1.95.97,2.93.59,1.05-.4,1.7-1.32,1.81-2.43.06-.57-.08-1.18-.38-1.67-.17-.29-.59-.42-.89-.23-.29.19-.42.58-.23.89h0Z"/>
          <path class="cls-5" d="M224.32,148.17s.08.09.13.14c.03.04.02.03-.02-.02.02.02.03.04.05.07.07.1.12.2.17.31-.05-.1,0,0,.02.05.02.05.03.1.05.16.01.05.03.11.04.16.01.06.02.16.01.04.01.12.02.24.02.35,0,.06,0,.13-.01.19.01-.12,0-.02-.01.04-.02.11-.05.21-.09.31-.05.14.05-.08-.02.04-.03.06-.06.11-.09.17-.03.05-.06.09-.09.13-.03.04-.02.03.02-.03-.02.03-.05.05-.07.08-.07.08-.15.15-.23.22-.13.11.11-.06-.04.03-.04.03-.09.06-.13.09s-.09.05-.14.08c-.03.02-.06.03-.1.05.07-.03.08-.03.03-.01-.11.04-.22.08-.33.1-.05.01-.11.02-.16.03.15-.04,0,0-.04,0-.11,0-.21,0-.32,0-.07,0-.15-.03-.04,0-.07-.01-.14-.03-.21-.05-.33-.09-.72.11-.8.45-.08.34.1.71.45.8,1.24.33,2.64-.22,3.31-1.32.68-1.12.46-2.65-.44-3.58-.24-.24-.68-.26-.92,0-.24.26-.25.66,0,.92h0Z"/>
          <path class="cls-5" d="M227.12,151.99c.08.08.16.16.23.24-.08-.1-.01-.01.02.04.03.05.06.09.09.14.03.05.05.1.08.15.05.08-.04-.11,0-.02,0,.02.02.04.03.07.04.11.07.23.1.34.01.05.03.11.03.16,0,0-.01-.13,0-.05,0,.03,0,.06,0,.1,0,.11,0,.22,0,.34,0,.03,0,.06,0,.1,0,.08,0-.05,0-.05,0,.05-.02.11-.03.16-.02.12-.06.23-.1.34,0,.01-.03.09,0,.01.03-.09,0,0-.02.03-.02.04-.04.09-.07.13-.03.05-.06.1-.09.14-.02.03-.04.05-.05.08.02-.04.07-.08.01-.02-.07.08-.15.17-.23.24-.02.02-.04.03-.05.05-.06.06.1-.06.02-.01-.05.03-.09.06-.14.09-.05.03-.1.06-.14.08-.06.03-.15.09-.04.02-.1.05-.23.08-.34.11-.05.01-.11.03-.16.04-.02,0-.05,0-.07.01-.09.02.12,0,.03,0-.11,0-.22.02-.33.01-.06,0-.13,0-.19-.01-.03,0-.12-.02-.03,0,.09.02-.01,0-.03,0-.13-.02-.25-.06-.37-.1-.02,0-.12-.04-.03-.01.08.03-.01,0-.03-.01-.06-.03-.11-.06-.17-.09-.05-.03-.11-.07-.16-.1-.02-.01-.04-.03-.06-.04.13.1,0,0-.02-.02-.25-.23-.67-.27-.92,0-.23.25-.27.68,0,.92.97.86,2.36,1,3.52.44,1.16-.55,1.74-1.87,1.57-3.11-.09-.69-.39-1.35-.91-1.84-.25-.23-.68-.26-.92,0-.23.25-.27.67,0,.92h0Z"/>
          <path class="cls-5" d="M231.27,155.29s.17.2.09.09c.04.05.07.09.1.14.04.07.08.13.12.2,0,.01.09.18.03.06.05.12.09.26.12.39.02.08.03.15.04.23-.02-.12,0,.01,0,.06,0,.14,0,.27,0,.41,0,.04,0,.08-.01.12,0-.08,0-.08,0,0-.01.06-.02.11-.04.17-.02.07-.04.13-.06.19,0,.03-.02.05-.03.08.03-.07.03-.06,0,0-.06.12-.13.24-.2.35-.08.12.05-.05-.04.05-.05.06-.1.11-.16.17-.04.04-.08.08-.13.11-.06.05-.06.05,0,0-.03.02-.06.04-.09.06-.11.07-.23.14-.35.19-.16.08.12-.04-.06.02-.07.02-.14.05-.22.07-.06.02-.11.03-.17.04-.03,0-.27.03-.11.02-.13.01-.27.02-.4.01-.06,0-.11,0-.17-.01.15.02-.05-.01-.08-.02-.07-.01-.13-.03-.19-.05-.03,0-.25-.09-.11-.04-.31-.14-.71-.1-.89.23-.15.28-.1.75.23.89,1.06.46,2.32.38,3.26-.31,1.02-.74,1.46-1.93,1.28-3.16-.1-.64-.4-1.24-.84-1.71-.23-.25-.69-.25-.92,0-.24.27-.25.66,0,.92h0Z"/>
        </g>
        <path class="cls-5" d="M244.42,156.53c7.09,3.23,14.32,6.12,21.51,9.12,6.4,2.68,12.91,5.35,18.87,8.94.72.43,1.37-.69.66-1.12-5.8-3.49-12.14-6.11-18.37-8.73-7.34-3.09-14.75-6.03-22-9.33-.76-.34-1.42.78-.66,1.12h0Z"/>
        <path class="cls-6" d="M126.88,81.96s3.97,13.83,6.3,14.14c2.33.31,37.1-13.69,37.51-16.48.41-2.79-5.07-12.61-6.98-12.97-1.92-.36-37.39,13.46-36.83,15.31Z"/>
        <g>
          <path class="cls-5" d="M79.62,115.42l-.74-1.97-2.62-7.02c-.09-.24-.12-.45-.08-.63.03-.18.18-.33.45-.44.22-.09.41-.11.6-.06.18.05.32.2.41.44l.69,1.88c.44,1.23.9,2.44,1.36,3.65.46,1.21.91,2.39,1.35,3.56.08.21.06.39-.05.54-.11.15-.26.26-.43.34-.17.07-.35.1-.54.07-.18-.02-.32-.14-.4-.35ZM77.69,106.65c-.2.11-.37.14-.53.07-.15-.06-.27-.2-.36-.4-.06-.14-.06-.29,0-.45.05-.16.16-.28.3-.38.13-.08.29-.17.49-.28.2-.1.38-.19.56-.26.52-.22,1.04-.38,1.55-.49.51-.11.99-.13,1.45-.07.46.06.86.24,1.23.52.36.29.66.71.9,1.27.42,1.01.44,1.93.05,2.74-.39.82-1.19,1.48-2.4,1.98-.37.16-.75.3-1.12.44-.38.14-.75.26-1.14.37-.16.05-.32.05-.48,0-.15-.05-.27-.16-.35-.32-.08-.16-.09-.34-.03-.52.06-.18.17-.3.32-.35.38-.13.75-.26,1.13-.38.38-.13.75-.27,1.11-.42.56-.23.97-.5,1.23-.81.27-.31.41-.65.43-1.01.02-.36-.04-.73-.2-1.1-.24-.56-.62-.9-1.15-1.01-.53-.11-1.21,0-2.05.36-.16.07-.32.14-.47.23-.16.09-.32.17-.48.26Z"/>
          <path class="cls-5" d="M84.52,103.43c-.03-.15-.04-.28-.03-.38.02-.1.05-.19.12-.27.06-.07.13-.13.2-.17.06-.1.17-.21.31-.32.14-.11.32-.22.53-.33.22-.11.48-.23.77-.35.46-.19.94-.35,1.44-.47.51-.12,1-.17,1.48-.16.48.01.91.13,1.28.34.38.21.66.55.86,1.02.11.27.17.55.19.84.02.29-.03.6-.15.91-.22.65-.57,1.22-1.05,1.71-.48.5-1.05.93-1.7,1.29.93.21,1.82.44,2.67.69.84.26,1.69.56,2.53.89.14.06.24.16.3.3.05.12.07.26.04.41-.03.15-.08.28-.17.4-.09.12-.2.21-.33.26-.07.03-.15.05-.22.05-.07,0-.15-.01-.25-.04-.93-.39-1.85-.73-2.75-1.01-.9-.29-1.85-.54-2.86-.75l1.01,3.11c.09.23.08.42-.02.56-.1.15-.27.28-.52.38-.18.08-.36.09-.54.04-.18-.05-.3-.18-.38-.41l-2.78-8.56ZM87.18,106.59c.52-.22.99-.48,1.39-.79.4-.3.73-.62.99-.96.26-.33.44-.66.53-.98.09-.32.09-.61-.02-.86-.1-.24-.29-.41-.57-.51-.28-.1-.63-.12-1.05-.07-.42.05-.9.19-1.43.41-.17.07-.33.14-.48.22s-.3.16-.45.25l1.08,3.28Z"/>
          <path class="cls-5" d="M97.03,97.22c.14-.01.27.02.39.1.11.08.2.19.25.33.06.13.07.27.05.39-.02.13-.06.24-.13.33-.07.09-.16.15-.26.18-.13.02-.26.05-.39.08-.13.03-.3.08-.5.17-.37.16-.69.41-.95.75-.26.34-.45.74-.57,1.2-.12.45-.16.93-.12,1.44.04.51.16,1,.36,1.49.22.51.49.97.82,1.35.33.39.7.69,1.09.92.4.22.8.36,1.21.41.41.05.81,0,1.19-.17.36-.15.66-.38.9-.7.24-.32.42-.69.52-1.11.1-.42.14-.88.09-1.37-.04-.49-.17-.97-.37-1.45-.18-.44-.44-.85-.76-1.23-.33-.38-.67-.71-1.05-.98-.37-.27-.72-.46-1.05-.57-.1-.05-.2-.13-.31-.24-.11-.1-.19-.22-.24-.35-.07-.16-.07-.31,0-.47.06-.15.2-.27.4-.36.17-.07.35-.08.56-.04.21.04.43.13.67.26.72.35,1.37.82,1.93,1.42.57.6,1,1.26,1.31,1.99.28.67.44,1.34.47,2.01.04.67-.04,1.3-.23,1.89-.19.59-.48,1.11-.87,1.56-.39.45-.87.8-1.44,1.04-.61.25-1.21.36-1.83.33-.61-.03-1.2-.19-1.77-.47-.57-.28-1.08-.68-1.54-1.19-.46-.51-.84-1.11-1.13-1.81-.29-.7-.45-1.4-.49-2.1-.03-.7.04-1.37.23-1.99.19-.63.48-1.18.88-1.65.39-.48.88-.84,1.46-1.08.13-.06.26-.11.4-.15.13-.05.27-.08.4-.11.14-.03.27-.04.42-.04Z"/>
          <path class="cls-5" d="M106.55,104.63c-.27.11-.48.12-.63.03-.15-.09-.25-.2-.3-.33-.42-1.43-.88-2.86-1.37-4.28-.5-1.43-1.01-2.79-1.55-4.1-.07-.19-.1-.33-.08-.45.01-.11.07-.22.18-.31.11-.09.26-.19.46-.3.6-.33,1.21-.64,1.82-.94.61-.29,1.22-.57,1.84-.84.17-.07.34-.07.5.02.16.08.28.22.36.39.08.18.09.35.02.53-.07.17-.18.29-.34.35-.52.23-1.04.47-1.55.72-.52.26-1.04.52-1.56.78.19.48.38.97.56,1.47.18.5.37,1,.54,1.49.38-.19.78-.38,1.2-.58.42-.2.93-.43,1.53-.68.16-.07.33-.06.48.02.16.08.28.21.36.39.09.17.1.34.03.53-.07.19-.18.32-.34.38-.61.26-1.14.48-1.58.68-.44.2-.85.39-1.24.58.21.6.41,1.19.59,1.76.18.57.36,1.16.55,1.77.07.21.05.4-.06.55-.11.15-.25.27-.43.34Z"/>
          <path class="cls-5" d="M109.24,92.47c-.06-.2-.04-.37.05-.53.1-.15.24-.27.42-.34.23-.1.43-.11.6-.03.17.08.3.26.4.53.12.35.26.77.44,1.27.17.5.36,1.02.57,1.56.2.54.4,1.07.61,1.59s.38.97.55,1.36c.21.5.42.99.64,1.47.22.48.44.95.64,1.4.1.2.1.38-.01.52-.11.15-.26.26-.44.34-.17.07-.34.09-.53.07-.19-.02-.33-.14-.41-.34-.22-.45-.43-.91-.65-1.4-.22-.48-.43-.97-.63-1.46-.16-.39-.35-.85-.55-1.38-.21-.53-.41-1.07-.62-1.64s-.4-1.11-.59-1.63c-.18-.52-.34-.98-.46-1.36Z"/>
          <path class="cls-5" d="M112.88,91.14c-.08-.2-.07-.37.04-.52.11-.15.25-.26.42-.33.12-.05.24-.08.37-.09.13,0,.24.01.35.06.11.05.19.15.23.28.5,1.25.99,2.54,1.49,3.86.5,1.32.99,2.66,1.49,4.02.21-.11.44-.24.71-.38.27-.14.54-.27.83-.38.32-.14.64-.25.94-.35.3-.1.56-.16.77-.19.19-.03.36,0,.5.07.14.08.24.19.3.33.05.12.08.24.09.39.01.14-.02.27-.08.38-.07.11-.2.19-.39.24-.25.05-.54.14-.87.24-.33.1-.7.24-1.11.41-.17.07-.37.16-.59.26-.22.1-.42.2-.61.31-.19.1-.34.19-.44.27-.21.15-.43.22-.67.19-.24-.03-.4-.18-.49-.45-.53-1.45-1.07-2.89-1.62-4.33-.55-1.44-1.11-2.87-1.66-4.28Z"/>
          <path class="cls-5" d="M123.75,97.39c-.26.11-.47.12-.65.04-.18-.08-.31-.22-.39-.42-.59-1.41-1.15-2.85-1.67-4.32-.52-1.47-1-2.94-1.44-4.4-.09-.21-.08-.39.02-.53.1-.15.23-.26.4-.33.11-.04.22-.07.32-.08.11-.01.21,0,.3.03.7-.35,1.36-.66,1.99-.93.62-.27,1.27-.53,1.94-.79.25-.1.45-.11.59-.05.14.07.26.19.34.39.09.21.11.39.05.56-.05.16-.2.29-.45.39-.65.25-1.28.51-1.89.77-.62.26-1.26.56-1.92.9.1.3.2.62.31.96.11.34.23.68.35,1.02.12.34.23.66.33.96.32-.18.66-.36,1.02-.54.36-.17.7-.34,1.03-.48.33-.15.6-.26.83-.33.13-.05.25-.06.37-.03.11.03.21.09.28.17.08.08.14.17.18.27.07.17.09.34.06.51-.03.16-.15.29-.35.37-.22.07-.5.19-.84.34-.34.15-.7.32-1.07.5-.37.18-.72.36-1.03.54.16.49.34.98.53,1.49.19.5.38,1,.58,1.48.63-.27,1.26-.55,1.89-.83.63-.28,1.23-.55,1.81-.81.18-.08.35-.08.49,0,.15.07.26.19.34.36.09.19.11.37.05.56s-.17.31-.34.39c-.64.29-1.31.59-2.02.9-.71.32-1.49.65-2.34,1.01Z"/>
          <path class="cls-5" d="M131.48,83.62c-.06-.15-.08-.28-.04-.4.04-.12.1-.22.2-.3.09-.08.2-.15.31-.2.17-.07.35-.09.54-.07.19.03.32.15.4.37.59,1.43,1.17,2.88,1.73,4.34.56,1.46,1.11,2.92,1.62,4.37.09.22.09.41-.02.56-.11.15-.25.27-.44.34-.12.05-.24.07-.36.08-.12,0-.24-.03-.35-.1-.11-.07-.19-.18-.26-.34-.51-1.43-1.05-2.88-1.62-4.34-.57-1.46-1.14-2.9-1.73-4.33ZM132.77,84.04c-.19.11-.35.11-.5.02-.14-.1-.25-.23-.32-.39-.07-.17-.09-.34-.06-.5.03-.16.15-.3.33-.42.14-.09.3-.17.48-.26.18-.09.37-.17.57-.25.95-.4,1.82-.61,2.62-.65.8-.04,1.53.07,2.17.33.64.26,1.2.63,1.67,1.12.47.49.84,1.06,1.11,1.71.32.75.46,1.48.44,2.18-.02.7-.19,1.35-.51,1.95-.32.6-.75,1.13-1.31,1.61-.56.47-1.21.86-1.96,1.18-.38.16-.7.29-.94.38s-.49.17-.74.23c-.19.06-.36.04-.52-.05-.16-.1-.27-.22-.34-.39-.1-.23-.1-.42-.02-.56.09-.14.2-.24.33-.29.22-.07.44-.15.66-.22.22-.07.46-.16.71-.27.94-.39,1.65-.86,2.14-1.42.49-.55.78-1.14.86-1.78.08-.63-.01-1.27-.29-1.92-.19-.46-.44-.87-.76-1.23-.31-.37-.7-.65-1.15-.86-.45-.21-.98-.3-1.58-.28-.6.02-1.28.19-2.04.51-.2.08-.39.17-.58.26-.19.09-.36.18-.52.27Z"/>
          <path class="cls-5" d="M144.8,88.44c-.02.17-.08.31-.19.41-.11.1-.24.19-.41.26-.16.07-.32.09-.48.07-.16-.02-.29-.09-.39-.2-.1-.11-.14-.27-.12-.48.06-.68.11-1.43.15-2.27.04-.84.08-1.71.11-2.63.03-.91.05-1.84.07-2.78.02-.94.03-1.84.03-2.71,0-.24.06-.43.17-.56.11-.13.25-.23.4-.29.21-.09.4-.11.57-.06.17.05.35.16.54.33.08.07.23.23.46.48.23.26.5.57.81.93.31.36.65.75,1,1.15.35.4.69.79,1.01,1.16.33.37.6.68.84.94.43.47.84.91,1.24,1.32.39.41.75.74,1.08,1,.12.1.22.19.3.28.08.09.14.18.18.28.03.08.05.17.04.28-.01.1-.05.2-.13.3-.08.1-.2.19-.37.26-.15.06-.3.1-.46.1-.16,0-.3-.05-.44-.18-.46-.41-.94-.86-1.43-1.36-.49-.5-.97-1.01-1.45-1.56-.25-.27-.5-.55-.74-.85-.25-.3-.5-.61-.75-.93-.25-.32-.5-.63-.75-.94-.25-.31-.5-.6-.74-.87,0,.77.01,1.54.02,2.31,0,.77,0,1.55,0,2.33,0,.78-.02,1.54-.04,2.29-.02.75-.06,1.48-.12,2.18ZM144.74,85.35c-.14.07-.29.06-.46-.01-.17-.07-.3-.21-.39-.4-.06-.15-.09-.28-.07-.4.02-.12.06-.22.13-.31.07-.09.15-.16.24-.2.43-.24.9-.48,1.42-.73.52-.25,1.02-.48,1.5-.69.48-.21.88-.37,1.19-.48.17-.07.33-.07.49,0,.16.07.28.2.37.4.09.22.11.42.05.58-.06.16-.18.28-.34.35-.28.1-.65.25-1.12.45-.46.2-.96.43-1.49.68-.53.25-1.03.5-1.51.76Z"/>
          <path class="cls-5" d="M149.27,76.42c-.2.06-.37.05-.53-.04-.15-.09-.27-.22-.34-.39-.09-.21-.08-.4.02-.58.1-.18.27-.32.5-.41.17-.07.33-.12.49-.17.16-.04.32-.08.48-.13.16-.04.33-.1.5-.16.32-.11.63-.22.93-.33.3-.1.59-.21.89-.33.29-.11.6-.24.91-.37.43-.18.85-.36,1.27-.55.41-.19.81-.38,1.18-.58.19-.09.36-.08.53.01.16.1.28.23.36.39.1.19.11.37.04.54-.07.17-.2.3-.37.38-.38.19-.78.38-1.2.57-.42.2-.85.39-1.29.57-.72.3-1.44.57-2.16.81-.72.24-1.45.48-2.21.74ZM151.91,74.81c-.07-.21-.05-.39.05-.54.1-.14.24-.26.44-.34.12-.05.24-.08.37-.08.13,0,.24.02.35.07.1.06.17.15.22.29.37,1.07.71,2.08,1.04,3.04.32.96.65,1.92.98,2.87.33.95.68,1.95,1.05,2.98.09.21.08.39-.03.53-.11.15-.25.26-.42.33-.19.08-.37.1-.55.08-.18-.03-.31-.15-.4-.35-.27-.77-.54-1.51-.8-2.23-.26-.71-.51-1.42-.76-2.12-.24-.7-.49-1.42-.74-2.17-.25-.74-.51-1.53-.78-2.36Z"/>
          <path class="cls-5" d="M160.78,81.39c.02.2-.01.36-.11.5-.09.14-.25.25-.48.35-.22.09-.41.11-.57.05-.16-.06-.28-.16-.34-.31-.03-.07-.05-.17-.06-.27-.01-.11-.02-.25-.03-.43-.02-.84-.02-1.67-.01-2.5.01-.83.04-1.66.07-2.49.03-.83.08-1.65.13-2.47.05-.82.1-1.64.14-2.46.01-.21.07-.38.17-.51.1-.14.23-.24.4-.31.21-.09.41-.11.61-.09.2.03.35.11.47.25.08.07.26.26.54.56.28.3.62.66,1.03,1.1.41.44.85.91,1.32,1.42.48.51.95,1.01,1.44,1.51s.93.96,1.35,1.38c.41.42.76.76,1.04,1.03.08.06.17.14.25.23.08.09.14.17.16.24.08.18.07.36-.02.54-.09.18-.23.31-.43.39-.13.06-.27.09-.42.1-.15.01-.29-.04-.42-.16-.53-.51-1.08-1.06-1.65-1.66s-1.12-1.21-1.67-1.82c-.55-.61-1.07-1.19-1.55-1.72-.49-.53-.91-.99-1.28-1.37-.04,1.06-.07,2.1-.09,3.12-.03,1.02-.04,2.01-.04,2.98,0,.97.02,1.91.05,2.84ZM159.67,78.14c-.06-.14-.06-.27-.01-.4.05-.12.13-.23.22-.33.1-.09.19-.17.27-.22.16-.12.39-.26.68-.42.29-.16.63-.33,1.04-.51.4-.18.87-.35,1.39-.52.14-.05.29-.11.46-.19.17-.08.35-.17.53-.26s.35-.18.49-.26c.15-.08.26-.15.35-.2.18-.1.35-.12.53-.05.17.07.3.2.38.39.07.17.08.34,0,.49-.07.15-.18.3-.33.43-.15.13-.32.25-.5.35-.18.1-.35.18-.51.25-.47.2-.94.39-1.4.59-.46.19-.91.4-1.35.61-.44.21-.88.45-1.32.7-.12.06-.28.05-.49-.04-.2-.09-.34-.23-.42-.41Z"/>
        </g>
        <path class="cls-6" d="M114.93,192.12c-8.42,5.39-10.88,16.58-5.49,25,5.39,8.42,16.58,10.88,25,5.49,8.42-5.39,10.88-16.58,5.49-25-5.39-8.42-16.58-10.88-25-5.49ZM131.11,217.41c-5.45,3.49-12.7,1.9-16.19-3.55-3.49-5.45-1.9-12.7,3.55-16.19,5.45-3.49,12.7-1.9,16.19,3.55,3.49,5.45,1.9,12.7-3.55,16.19Z"/>
        <path class="cls-3" d="M114.93,192.12c-8.42,5.39-10.88,16.58-5.49,25,5.39,8.42,16.58,10.88,25,5.49l-3.33-5.2c-5.45,3.49-12.7,1.9-16.19-3.55-3.49-5.45-1.9-12.7,3.55-16.19,2.73-1.74,5.9-2.22,8.83-1.58l2.69-6.03c-4.9-1.5-10.41-.92-15.07,2.06Z"/>
        <path class="cls-6" d="M180.83,179.25c-5.32-8.47-16.49-11.02-24.96-5.7-8.47,5.32-11.02,16.49-5.7,24.96,5.32,8.47,16.49,11.02,24.96,5.7s11.02-16.49,5.7-24.96ZM155.4,195.22c-3.44-5.48-1.79-12.72,3.69-16.16,5.48-3.44,12.71-1.79,16.16,3.69,3.44,5.48,1.79,12.71-3.69,16.16-5.48,3.44-12.72,1.79-16.16-3.69Z"/>
        <path class="cls-3" d="M180.83,179.25c-5.32-8.47-16.49-11.02-24.96-5.7-8.47,5.32-11.02,16.49-5.7,24.96l5.23-3.29c-3.44-5.48-1.79-12.72,3.69-16.16,5.48-3.44,12.71-1.79,16.16,3.69,1.72,2.74,2.17,5.92,1.5,8.84l6.01,2.74c1.54-4.89,1.01-10.4-1.93-15.08Z"/>
        <path class="cls-6" d="M210.88,187.9c9.67-2.52,15.48-12.4,12.96-22.08-2.52-9.67-12.4-15.48-22.08-12.96-9.67,2.52-15.48,12.4-12.96,22.08,2.52,9.67,12.4,15.48,22.08,12.96ZM203.32,158.85c6.26-1.63,12.66,2.13,14.29,8.39,1.63,6.26-2.13,12.66-8.39,14.29-6.26,1.63-12.66-2.13-14.29-8.39-1.63-6.26,2.13-12.66,8.39-14.29Z"/>
        <path class="cls-3" d="M210.88,187.9c9.67-2.52,15.48-12.4,12.96-22.08-2.52-9.67-12.4-15.48-22.08-12.96l1.56,5.98c6.26-1.63,12.66,2.13,14.29,8.39,1.63,6.26-2.13,12.66-8.39,14.29-3.13.82-6.3.28-8.88-1.23l-4.42,4.9c4.2,2.95,9.61,4.1,14.96,2.71Z"/>
        <path class="cls-3" d="M139.41,108.62s3.48,8.48,4.69,8.93c1.21.45,38.37-17.04,38.94-18.06.57-1.02-3.22-7.83-5.18-8.74-1.97-.91-38.45,17.86-38.45,17.86Z"/>
        <path class="cls-5" d="M150.36,127.16c17.29-8.16,34.57-16.32,51.86-24.49.76-.36.1-1.48-.66-1.12-17.29,8.16-34.57,16.32-51.86,24.49-.76.36-.1,1.48.66,1.12h0Z"/>
        <path class="cls-5" d="M152.65,132.83c17.29-8.16,34.57-16.32,51.86-24.49.76-.36.1-1.48-.66-1.12-17.29,8.16-34.57,16.32-51.86,24.49-.76.36-.1,1.48.66,1.12h0Z"/>
        <path class="cls-5" d="M154.94,138.49c17.29-8.16,34.57-16.32,51.86-24.49.76-.36.1-1.48-.66-1.12-17.29,8.16-34.57,16.32-51.86,24.49-.76.36-.1,1.48.66,1.12h0Z"/>
        <path class="cls-5" d="M157.22,144.16c17.29-8.16,34.57-16.32,51.86-24.49.76-.36.1-1.48-.66-1.12-17.29,8.16-34.57,16.32-51.86,24.49-.76.36-.1,1.48.66,1.12h0Z"/>
        <path class="cls-3" d="M169.75,150.74c0,2.35-1.9,4.25-4.25,4.25s-4.25-1.9-4.25-4.25,1.9-4.25,4.25-4.25,4.25,1.9,4.25,4.25Z"/>
        <path class="cls-3" d="M181.54,145.3c0,2.35-1.9,4.25-4.25,4.25s-4.25-1.9-4.25-4.25,1.9-4.25,4.25-4.25,4.25,1.9,4.25,4.25Z"/>
        <path class="cls-3" d="M193.32,139.87c0,2.35-1.9,4.25-4.25,4.25s-4.25-1.9-4.25-4.25,1.9-4.25,4.25-4.25,4.25,1.9,4.25,4.25Z"/>
        <g>
          <path class="cls-6" d="M146.9,240.45c-6.34.85-23.22,7.84-22.91,10.7.31,2.88,7.05,19.89,9.57,21.53,2.52,1.64,23.92-7.93,24.3-10.32.38-2.39-8.66-22.21-10.95-21.91Z"/>
          <circle class="cls-3" cx="143.87" cy="247.94" r="4.63"/>
          <path class="cls-3" d="M157.85,262.36c.16-1.01-1.37-5.15-3.36-9.56-3.3-.74-7.02.33-9.28,2.88-.85.96-1.66,2.2-2.94,2.35-.99.12-1.9-.47-2.79-.91-2.44-1.19-5.37-1.32-7.91-.35-1.8.69-3.38,1.93-4.51,3.49,2.21,5.49,5.05,11.49,6.49,12.43,2.52,1.64,23.92-7.93,24.3-10.32Z"/>
          <path class="cls-4" d="M158.03,259.44c-1.45-4.44-3.5-8.76-5.68-12.87-.9-1.7-2.96-6.89-5.45-6.91-.06,0-.11.02-.16.03-.02,0-.03,0-.05,0-4.47.66-8.85,2.41-12.98,4.17-3.08,1.32-8.1,2.99-10.05,5.97-1.36,2.09.8,5.87,1.55,7.87,1.61,4.27,3.34,8.59,5.59,12.57,1.27,2.25,2.22,3.7,4.95,3.28,3.66-.56,7.26-2.15,10.64-3.6,3.61-1.55,7.49-3.18,10.64-5.57,1.97-1.49,1.72-2.72,1-4.94ZM156.22,263c-2.48,2-5.7,3.34-8.57,4.65-3.28,1.49-6.66,2.9-10.13,3.85-.87.24-2.4.85-3.31.55-.85-.27-1.39-1.5-1.81-2.22-2.03-3.46-3.58-7.25-5.04-10.98-.58-1.48-1.14-2.97-1.65-4.47-.26-.78-1.14-2.51-.92-3.37.29-1.15,2.47-2.16,3.38-2.69,2.15-1.26,4.44-2.3,6.73-3.26,3.83-1.6,7.88-3.17,12.01-3.81,1.38.06,3.75,5.54,4.29,6.58,1.7,3.26,3.25,6.61,4.56,10.04.66,1.73,2.04,3.84.45,5.12Z"/>
          <path class="cls-5" d="M134.89,274.14c-2.49,0-3.49-1.76-4.54-3.62-2.28-4.02-4.05-8.45-5.62-12.64-.14-.36-.32-.79-.52-1.25-.95-2.18-2.24-5.15-.98-7.09,1.75-2.68,5.68-4.28,8.84-5.56.51-.21,1-.41,1.44-.6,3.93-1.68,8.51-3.53,13.11-4.21h.08s.02,0,.02,0c.05-.01.12-.02.2-.02,2.44.02,4.31,3.9,5.43,6.22.18.38.34.71.48.96,2.64,4.99,4.46,9.11,5.71,12.96h0c.75,2.31,1.05,3.83-1.18,5.52-3.09,2.35-6.8,3.93-10.38,5.47l-.78.34c-3.33,1.43-6.77,2.91-10.36,3.46-.34.05-.65.08-.94.08ZM146.7,240.21c-4.46.67-8.94,2.48-12.79,4.13-.45.19-.94.39-1.46.6-3.02,1.23-6.78,2.76-8.36,5.17-.96,1.47.21,4.15,1.06,6.11.21.48.4.92.54,1.3,1.56,4.15,3.32,8.54,5.56,12.5,1.26,2.24,2.03,3.38,4.42,3.02,3.45-.53,6.83-1.98,10.1-3.38l.78-.34c3.52-1.51,7.17-3.07,10.16-5.34,1.65-1.25,1.54-2.14.82-4.37-1.24-3.79-3.03-7.85-5.64-12.79-.14-.26-.3-.6-.49-1-.95-1.97-2.71-5.62-4.5-5.63l-.18.03h-.01ZM146.64,240.2s0,0,.01,0h-.01ZM146.77,240.2s0,0,0,0c0,0,0,0,0,0Z"/>
        </g>
        <g>
          <path class="cls-6" d="M162.87,274.38c-6.34.85-23.22,7.84-22.91,10.7.31,2.88,7.05,19.89,9.57,21.53,2.52,1.64,23.92-7.93,24.3-10.32.38-2.39-8.66-22.21-10.95-21.91Z"/>
          <path class="cls-3" d="M164.47,281.86c0,2.56-2.07,4.63-4.63,4.63s-4.63-2.07-4.63-4.63,2.07-4.63,4.63-4.63,4.63,2.07,4.63,4.63Z"/>
          <path class="cls-3" d="M173.83,296.28c.16-1.01-1.37-5.15-3.36-9.56-3.3-.74-7.02.33-9.28,2.88-.85.96-1.66,2.2-2.94,2.35-.99.12-1.9-.47-2.79-.91-2.44-1.19-5.37-1.32-7.91-.35-1.8.69-3.38,1.93-4.51,3.49,2.21,5.49,5.05,11.49,6.49,12.43,2.52,1.64,23.92-7.93,24.3-10.32Z"/>
          <path class="cls-4" d="M174,293.36c-1.45-4.44-3.5-8.76-5.68-12.87-.9-1.7-2.96-6.89-5.45-6.91-.06,0-.11.02-.16.03-.02,0-.03,0-.05,0-4.47.66-8.85,2.41-12.98,4.17-3.08,1.32-8.1,2.99-10.05,5.97-1.36,2.09.8,5.87,1.55,7.87,1.61,4.27,3.34,8.6,5.59,12.57,1.27,2.25,2.22,3.7,4.95,3.28,3.66-.56,7.26-2.15,10.64-3.6,3.61-1.55,7.49-3.18,10.64-5.56,1.97-1.49,1.72-2.72,1-4.94ZM172.2,296.92c-2.48,2-5.7,3.34-8.57,4.65-3.28,1.49-6.66,2.9-10.13,3.85-.87.24-2.4.85-3.31.55-.85-.27-1.39-1.5-1.81-2.22-2.03-3.46-3.58-7.25-5.04-10.98-.58-1.48-1.14-2.97-1.65-4.47-.26-.78-1.14-2.51-.92-3.37.3-1.15,2.47-2.16,3.38-2.69,2.15-1.26,4.44-2.3,6.73-3.26,3.83-1.6,7.88-3.17,12.01-3.81,1.38.06,3.75,5.54,4.29,6.58,1.7,3.26,3.25,6.61,4.56,10.04.66,1.73,2.04,3.84.45,5.12Z"/>
          <path class="cls-5" d="M150.86,308.06c-2.49,0-3.49-1.76-4.54-3.62-2.27-4.02-4.05-8.45-5.62-12.65-.14-.36-.32-.78-.52-1.25-.95-2.18-2.24-5.16-.98-7.09,1.75-2.68,5.68-4.28,8.84-5.56.51-.21,1-.41,1.44-.6,3.93-1.68,8.51-3.53,13.11-4.21h.07s.02,0,.02,0c.05-.01.12-.03.21-.03,2.43.02,4.3,3.9,5.42,6.22.18.38.34.71.48.97,2.64,5,4.46,9.12,5.71,12.96.76,2.31,1.05,3.83-1.18,5.52-3.09,2.34-6.79,3.93-10.37,5.46l-.82.35c-3.32,1.43-6.76,2.9-10.34,3.45-.34.05-.65.08-.94.08ZM162.73,274.12c-4.47.66-8.98,2.48-12.85,4.13-.45.19-.94.39-1.46.6-3.02,1.23-6.78,2.76-8.36,5.17-.96,1.47.21,4.15,1.06,6.11.21.48.4.92.54,1.3,1.56,4.15,3.32,8.54,5.56,12.5,1.27,2.24,2.04,3.39,4.42,3.02,3.44-.52,6.82-1.97,10.08-3.38l.82-.35c3.52-1.51,7.16-3.07,10.15-5.34,1.65-1.25,1.54-2.14.82-4.37h0c-1.24-3.78-3.03-7.85-5.64-12.79-.14-.26-.3-.61-.5-1-.95-1.97-2.71-5.62-4.5-5.63l-.25.02s.06,0,.11,0Z"/>
        </g>
        <path class="cls-5" d="M123.55,236.72c7.03-3.24,13.97-6.68,20.81-10.31.74-.39.08-1.52-.66-1.12-6.84,3.63-13.78,7.07-20.81,10.31-.76.35-.1,1.47.66,1.12h0Z"/>
        <path class="cls-5" d="M166.78,217.49c6.74-3.49,13.56-6.81,20.47-9.94.76-.35.1-1.47-.66-1.12-6.91,3.14-13.73,6.45-20.47,9.94-.74.39-.09,1.51.66,1.12h0Z"/>
        <path class="cls-5" d="M206.85,198.3c7.65-3.85,15.29-7.71,22.94-11.56.75-.38.09-1.5-.66-1.12-7.65,3.85-15.29,7.71-22.94,11.56-.75.38-.09,1.5.66,1.12h0Z"/>
        <g>
          <path class="cls-5" d="M148.08,156.86c-1.67-1.89-3.15-3.93-4.4-6.12-4.84-8.47-13.67-26.05-15.78-27.61-2.55-1.89-5.72-2.82-8.88-3-3.37-.19-6.79.44-9.86,1.84l15.08,50.32c8.2.25,15.71-.49,20.98-4.47,0,0-5.11-8.79-3.43-8.12,1.68.67,5.27,6.54,6.76,6.2,1.49-.34,4.63-3.28,4.63-3.28l-5.1-5.75Z"/>
          <path class="cls-2" d="M101.27,132.45c3.06-10.16,16.16-13.43,23.65-5.92,2.37,2.37,4.27,5.95,5.88,11.04,4.5,14.2-7.42,18.26-7.42,18.26l1.94,12.21-17.48,1.76,1.76-15.22s-7.25-10.61-8.63-17.55c-.31-1.55-.16-3.09.29-4.58Z"/>
          <path class="cls-5" d="M121.69,132.31c.19.51-.04,1.07-.5,1.23-.46.17-.99-.11-1.17-.63-.19-.51.04-1.06.5-1.23.46-.17.99.11,1.17.63Z"/>
          <path class="cls-5" d="M112.82,135.52c.19.51-.04,1.07-.5,1.23-.46.17-.99-.11-1.17-.63-.19-.51.04-1.07.5-1.23s.99.11,1.17.63Z"/>
          <path class="cls-5" d="M107.02,132.88c.69-.83,1.8-1.52,2.78-1.95.91-.39,1.86-.42,2.8-.66.55-.14.4-.95-.09-1.04-2.47-.48-4.71,1.38-5.95,3.27-.2.31.21.68.46.38h0Z"/>
          <path class="cls-5" d="M118.35,141.78c1,1.8,3.78,1.33,4.93-.03.39-.46-.27-1.22-.74-.8-.6.54-1.23.96-2.08.96-.65,0-1.28-.27-1.9-.47-.21-.07-.3.2-.22.34h0Z"/>
          <path class="cls-5" d="M111.92,176.69c.17-3.46-.61-15.47-1.64-19.84-1.03-4.37-5.81-14.51-6.55-18.73-.74-4.23,5-12.12,7.38-15.17l-.67-1.85c-4.31.05-8.19,2.68-11.13,5.83-1.66,1.77-3.13,3.77-3.97,6.05-.7,1.92-.94,3.97-1.17,5.99-.43,3.76-.86,7.51-1.29,11.27,0,0-.91,23.46,1.97,29.08,0,0,3.14,1.37,7.45-.24,0,0-.11-8.4,1.06-6.73,1.17,1.68.96,6.13,2.15,6.31,1.18.18,6.42-1.96,6.42-1.96Z"/>
          <g class="cls-7">
            <path class="cls-5" d="M115.69,139.1c.28.76-.69,1.81-2.16,2.34-1.47.53-2.88.35-3.16-.41-.28-.76.69-1.81,2.16-2.34,1.47-.53,2.88-.35,3.16.41Z"/>
          </g>
          <g class="cls-7">
            <path class="cls-5" d="M127.94,134.66c.28.76-.69,1.81-2.16,2.34-1.47.53-2.88.35-3.16-.41-.28-.76.69-1.81,2.16-2.34,1.47-.53,2.88-.35,3.16.41Z"/>
          </g>
          <path class="cls-2" d="M100.89,144.42c-2.06-.35-3.03.51-3.54,1.29-.52.78-.66,1.76-.56,2.69.16,1.54,1.02,3.05,2.4,3.77,1.38.72,3.25.49,4.26-.69l-2.56-7.07Z"/>
          <path class="cls-5" d="M99.44,149.16c.18-.24.73-.53,1.01-.63.47-.17.84-.04,1.27.14.51.22.97-.46.53-.83-.54-.44-1.34-.53-1.98-.27-.3.12-.62.34-.81.61-.22.32-.15.55-.18.91,0,.08.1.15.16.07h0Z"/>
          <path class="cls-5" d="M121.3,126.03c-2.2-1.21-4.82.1-5.25,2.52-.6,3.4,2.38,7.49,4.98,9.36.6.43,1.24-.35.73-.87-1.65-1.67-3.33-3.35-4.2-5.59-.6-1.56-.88-3.53.84-4.54.72-.42,1.95-.55,2.77-.45.26.03.36-.3.14-.43h0Z"/>
          <path class="cls-5" d="M111.18,121.69c.97-1.43,1.65-2.91,3.06-4,1.6-1.24,3.35-1.47,5.28-1.69.4-.04.45-.64.04-.72-3.63-.69-8.6,2.38-8.5,6.37,0,.05.08.08.12.04h0Z"/>
          <path class="cls-5" d="M115.19,113.36c-3.92,1.49-5.95,5.26-5.25,9.38.1.61,1.07.54.96-.08-.64-3.68,1.15-7.27,4.37-9.14.09-.05.01-.2-.09-.17h0Z"/>
          <path class="cls-5" d="M118.3,157.05c1.51,1.53,5.36.56,6.97-.4.77-.46.25-1.58-.59-1.4-1.21.25-2.32.61-3.56.71-.91.07-1.91-.07-2.73.4-.25.14-.29.49-.09.69h0Z"/>
          <path class="cls-3" d="M110.12,171.09s-1.43-5.48.8-6.85c2.23-1.37,12.4-2.98,13.75-2.47,1.34.51,2.42,6.68,2.42,6.68l-16.97,2.63Z"/>
          <path class="cls-3" d="M97.72,188.49s-.88-10.84,3.87-14.99c4.75-4.15,20.45-6.45,32.37-7.28s11.26,1.6,11.26,1.6c-14.33,9.75-30.26,16.45-47.5,20.68Z"/>
          <path class="cls-5" d="M133.74,134.69c4.2,9.37,9.73,18.79,18.67,24.37.85.53,1.68-.64,1.04-1.35-6.85-7.52-14.15-14.34-19.11-23.38-.22-.4-.77-.05-.59.35h0Z"/>
          <path class="cls-5" d="M110.11,170.29c5.72.38,11.81-1.41,17.14-3.35.69-.25.42-1.3-.31-1.11-5.57,1.46-11.02,3.41-16.83,3.64-.54.02-.53.79,0,.83h0Z"/>
          <path class="cls-5" d="M115.28,169.47c-.34-1.74-.3-3.48-.14-5.24.05-.58-.88-.7-1.02-.14-.46,1.89-.3,3.78.19,5.65.17.63,1.09.36.97-.27h0Z"/>
          <path class="cls-5" d="M121.9,167.83c-.42-1.65-.79-3.33-1.3-4.96-.22-.71-1.31-.42-1.12.31.43,1.65.99,3.28,1.51,4.9.18.58,1.06.34.91-.25h0Z"/>
        </g>
        <path class="cls-5" d="M161.45,233.27c3.71-1.73,7.42-3.45,11.12-5.17.76-.35.1-1.48-.66-1.12-3.71,1.73-7.42,3.45-11.12,5.17-.76.35-.1,1.48.66,1.12h0Z"/>
        <path class="cls-5" d="M162.88,240.03c20.25-10.75,40.8-20.94,61.63-30.54,5.87-2.71,11.77-5.37,17.68-7.98.76-.34.1-1.46-.66-1.12-20.97,9.27-41.69,19.13-62.11,29.56-5.76,2.94-11.49,5.93-17.21,8.96-.74.39-.08,1.52.66,1.12h0Z"/>
        <path class="cls-5" d="M165.08,245.86c20.25-10.75,40.8-20.94,61.63-30.54,5.87-2.71,11.77-5.37,17.68-7.98.76-.34.1-1.46-.66-1.12-20.97,9.27-41.69,19.13-62.11,29.56-5.76,2.94-11.49,5.93-17.21,8.96-.74.39-.08,1.52.66,1.12h0Z"/>
        <path class="cls-5" d="M167.65,250.65c20.05-10.64,40.6-20.31,61.29-29.62,5.87-2.64,11.75-5.25,17.64-7.85.76-.34.1-1.46-.66-1.12-20.76,9.18-41.46,18.49-61.77,28.64-5.76,2.88-11.48,5.82-17.16,8.83-.74.39-.08,1.52.66,1.12h0Z"/>
        <path class="cls-5" d="M173.98,266.93c3.71-1.73,7.42-3.45,11.12-5.18.76-.35.1-1.48-.66-1.12-3.71,1.73-7.42,3.45-11.12,5.18-.76.35-.1,1.48.66,1.12h0Z"/>
        <path class="cls-5" d="M175.4,273.69c20.25-10.75,40.8-20.94,61.63-30.54,5.87-2.71,11.77-5.37,17.68-7.98.76-.34.1-1.46-.66-1.12-20.97,9.27-41.69,19.13-62.11,29.56-5.76,2.94-11.49,5.93-17.21,8.96-.74.39-.08,1.52.66,1.12h0Z"/>
        <path class="cls-5" d="M177.6,279.52c20.25-10.75,40.8-20.94,61.63-30.54,5.87-2.71,11.77-5.37,17.68-7.98.76-.34.1-1.46-.66-1.12-20.97,9.27-41.69,19.13-62.11,29.56-5.76,2.94-11.49,5.93-17.21,8.96-.74.39-.08,1.52.66,1.12h0Z"/>
        <path class="cls-5" d="M180.17,284.31c20.05-10.64,40.6-20.31,61.29-29.62,5.87-2.64,11.75-5.25,17.64-7.85.76-.34.1-1.46-.66-1.12-20.76,9.18-41.46,18.49-61.77,28.64-5.76,2.88-11.48,5.82-17.16,8.83-.74.39-.08,1.52.66,1.12h0Z"/>
      </g>
      <g class="cls-8">
        <path class="cls-5" d="M184.26,331.85h-.25c-.08,1.6-2.68,1.44-2.75,0h.25c.26-.74.36-1.46,1.32-1.61.69.3,1.51.53,1.43,1.61ZM193.51,331.85h.25c.15,1.16,1.11,1.51,2.09,1.77.53-.54.43-1.16.41-1.77h-.25c.63-1.95-2.72-1.69-2.5,0ZM175.52,331.85c-.06,1.63,2.86,2.31,2.25,0h.25c.13-1.63-2.83-1.87-2.5,0ZM165.84,325.03l-.09,1.18c.35-.33.36-.79.09-1.18ZM206.12,330.87c.35-.11.7-.23,1.04-.34-.31-.18-.73,0-1.04.34ZM165.85,330.76c-.15.01-.29.02-.43.03l-.17,2.36c.3-.32.41-.9.53-1.3h.25c-.02-.38.15-.8-.17-1.09ZM179.94,330.13c.45-.25.88-.48,1.3-.71v-1.34c-.59-.35-1.08-.63-1.54-.91-1.14.68-1.16.71-1.09,1.82.44.38.87.75,1.33,1.14ZM212.96,309.09q1.34-.64,1.2-1.81c-1.09-.7-2.78-1-2.82.76.41.6.89.95,1.63,1.05ZM190.57,329.19c.36.96,2.14.95,2.45-.08-.08-2.58-2.64-2.4-2.45.08ZM205.91,300.5c-.54,1.48-.5,1.86.62,2.65,2.04-.41,1.62-3.39-.62-2.65ZM195.86,307.18c-1.47-2.22-3.63,1.41-1.15,1.98.92-.3,1.64-1.17,1.15-1.98ZM189.36,308.87c.31-.54.59-1.03.88-1.53-.09-.1-.17-.2-.25-.29l-2.43,1.05c.17.59.87.57,1.81.77ZM208.03,307.22c-1.12-1.36-2.41-.73-2.49.94,1.06,1.64,2.33.82,2.49-.94ZM204.33,315.96c-.56,0-1.06-.08-1.5-.45-1.98.86,1.04,4.08,2.29,1.23-.1-.41-.28-.79-.79-.78ZM219.52,302.56c1.81-2.14-1.43-2.89-2-1.08-.26,1.34,1.01,1.69,2,1.08ZM188.42,314.35c.12.25.24.49.41.83,2.48-.57,1.09-3.1-.73-2.57-.37.71-1.08,1.72.32,1.74ZM200.05,302.7c1.13.26,1.98-.27,2.07-.89l-2.07.89ZM214.16,319.26c-.55-.97-2.62-1.28-2.39.28-.33,2.18,2.79,1.28,2.39-.28ZM212.04,314.82c1.4.49,1.72-.54,1.93-1.72-.46-.23-.75-.73-1.4-.77-.4.44-1.11.64-1.25,1.42.24.35.49.72.73,1.07ZM179.89,317.89c.33-.17.72-.38,1.14-.6.14-1.9-2.04-2.82-2.59-.57.47.34.63,1.06,1.44,1.17ZM167.29,321.49c-.94.27-.15,1.51-.09,2.16.73.81,1.55-.3,2.07-.84-.1-1.21-.86-1.59-1.97-1.33ZM192.59,311.87c.85-.88.43-1.8-.51-2.6-1.41.58-1.53.82-1.14,2.36.56-.05,1.04.45,1.65.24ZM205.55,314.04c.61,1.05,2.17,1.19,2.45-.15.31-2.03-2.45-1.75-2.45.15ZM186.44,327.54c-.77-1.05-1.29.6-1.78,1.08-.6,1.12.99,1.12,1.81,1.25,1.08-.25.26-1.67-.02-2.33ZM176.57,318.5c-.16.62-.89.94-1.05,1.73.53.32,1.04.64,1.53.93q.75-.41,1.2-1.56c-.39-.51-.8-1-1.68-1.1ZM213.54,326.81c.23-.38.48-.78.73-1.2-.61-.58-1.24-.94-2.06-1.11-1.49,1.09-.27,2.64,1.33,2.31ZM197.74,321.49c-1.4,1.15-1.43,1.84-.18,2.64q1.25-.75,1.67-1.53c-.37-.48-.78-.91-1.49-1.1ZM219.24,314.85c.06-.71.12-1.42.18-2.15-.78-.82-2.08.64-1.87,1.76.56.52,1.22.62,1.69.38ZM218.99,297.12c1.96-1.26.87-2.94-.59-2.36l-.17.08c-.21.11-.42.25-.62.45.09,1.02.49,1.62,1.39,1.83ZM204.91,310.71c.3-1.65-2.25-1.24-2.39.07.89,1.24,2.43,2.2,2.39-.07ZM186.63,317.85c.2-.51.37-.92.53-1.33-2.24-2.51-4.2,1.66-.53,1.33ZM191.48,321.41c-1.41,1.01-.87,2.85.91,2.42.16-.47.47-.91.81-1.28-.42-.58-.9-.95-1.72-1.14ZM183.98,312.79c-1.26-.4-2.27-.58-2.39,1.06.73.19,1.04,1,1.79,1.04.89-.5.63-1.27.6-2.1ZM172.86,329.26c.64.18,1.11.57,1.72.52.11-.13.25-.27.44-.49-.13-2.55-3.22-2.49-2.16-.04ZM177.98,314.32c.24-1-.29-1.53-1.03-1.64l-1.3.56c.23.51.49,1.03.48,1.59.77.24,1.26-.21,1.84-.51ZM210.78,298.06l-2.23.96c0,.1.03.2.07.32,1.09,1.17,2.93.05,2.16-1.28ZM214.41,304.93c.88,1.59,2.75,1.01,2.54-.79-.37-.3-.72-.58-1.08-.88-.61.11-.55.56-.7.88-.15.34-.72.27-.76.79ZM172.57,322.94c.8,1.32,2.37.8,2.48-.74-.89-1.17-2.7-.93-2.48.74ZM210.54,328.43c.15-.25.26-.41.36-.58-1.89-1.45-2.93,1.44-1.37,1.91.45-.15.89-.29,1.31-.43.05-.04.1-.08.16-.12-.15-.25-.29-.49-.46-.78ZM174.97,316.38c-.42-.35-.85-.7-1.27-1.04-1.53,1.29-1.43,2.28.67,2.54.67-.34.76-.87.59-1.5ZM210.75,323.24c.37-2.17-1.61-2.14-2.55-.53.95.69,1.5,1.77,2.55.53ZM198.76,304.14c-.26-.19-.5-.36-.77-.56l-1.21.52c-1.16,1.39,2.35,3.27,1.99.03ZM188.54,326.94c.44-.38.83-.71,1.25-1.07-.02-.43-.04-.87-.06-1.31-.35-.11-.63-.2-.89-.28-1.45.51-1.74,1.92-.31,2.66ZM204.04,303.23c-.44.79-1.35.93-1.49,1.77.72,1,1.55.56,2.38.32.07-.46.17-.85.3-1.3-.43-.28-.8-.53-1.19-.79ZM214.97,311.65c1.36.3,2.94-1.22,1.23-2.03-1.06,0-3.05,1.54-1.23,2.03ZM198.63,310.02c-.4-.12-.75-.22-1.13-.34-.43.51-1.41.52-1.17,1.61,1.72.94,1.56.49,2.66-.29-.12-.34-.25-.67-.36-.98ZM183.17,324.49c-.78.12-1.26.44-1.5,1.1.05.21.11.45.16.66.9.85,2.28.12,2.47-.97-.43-.3-.82-.57-1.13-.79ZM177.94,326.13c-.02-1.72-2.87-2.05-2.21.08.6,1.01,1.4.85,2.21-.08ZM185.57,321.78c-.38.16-.93.29-.89.78.3.52.58,1,.93,1.59,1.54-.11,1.76-3.47-.04-2.37ZM168.42,317.87c.11-.4.2-.75.32-1.19-.05-.14-.11-.26-.16-.38l-1.79.77c.1.7.54,1.08,1.63.8ZM217.8,326.38c.1-.32.2-.78.31-1.37-.35.4-.55.95-.31,1.37ZM183.69,318.79c-.41-.13-.75-.24-1.08-.35-3.14,1.91,2.05,3.82,1.08.35ZM170.81,324.47c-.55.23-1.04.43-1.22.98.23.41.45.79.7,1.24,2.15-.31,2.6-1.1.52-2.22ZM179.73,311.89c.66-.08,1.04-.47,1.17-.92l-1.41.61c.08.1.16.21.24.31ZM218.69,320.64c.06-.57.12-1.17.19-1.8-.59-.16-.98-.04-1.3.54.1.4.21.82.33,1.26h.78ZM200.12,326.58c1.41,1.28,1.8-1.03,1.31-2.06-1.47-.43-1.99.95-1.31,2.06ZM209.93,305.62c1.3.24,1.44-1.11.67-1.92-1.87-.39-2.6,1.2-.67,1.92ZM217.02,322.36c-.87-1.53-2.45-.62-2.19.97.41.21.81.4,1.15.57.8-.27.76-.96,1.04-1.54ZM168.9,327.77c-.41-.09-.8-.18-1.2-.26-1.04.55-1.02,1.15-.52,2.11h1.42c-.05-.67.72-1.12.3-1.85ZM214.83,317.31c2.08,1.08,2.77-.63,1.17-2.08-1.08.89-1.15,1.03-1.17,2.08ZM213.7,302.41c-.15-.26-.26-.47-.38-.68.12-.25.24-.49.37-.74-3.07-1.4-2.64,3,.02,1.42ZM188.14,320.47c1.04.56,1.69,0,1.85-1.12-1.01-1.3-3.67-.12-1.85,1.12ZM179.08,321.9c-.01.58-.07,1.1-.21,1.69.91.16,1.71.23,2.3-.72-.55-1.25-.85-1.39-2.1-.97ZM206.17,320.84q.73.04,1.34-.41c.16-2.08-1.17-2.7-2.04-.55.29.39.5.69.71.96ZM201,318.48c-1.72.22-1.66,2.09.08,2.42.93-.34.84-2.25-.08-2.42ZM194.94,314.73c.15-.62.74-.44,1.01-.72-.1-.51-.2-.98-.29-1.44q-.81-.12-1.59.3.14.9-.23,1.66c.52.46,1.02.56,1.1.21ZM201.08,308.75c.57-.38,1.48-1.53.58-1.95-.84-.2-1.54-.21-1.96.7.43.55.65,1.83,1.38,1.25ZM195.94,319.1c-.35-.17-.71-.35-1.07-.53-.65.2-1.05.62-1.32,1.19.84,1.21,2.95,1.14,2.39-.66ZM171.63,320.26c-.02-.55-.19-1.03-.46-1.47q-1.41-.15-1.79,1.04c.54.54,1.7,1.27,2.26.43ZM210.84,311.27c-.23-.58-.42-1.06-.59-1.49-2.69-.46-1.8,3.09.59,1.49ZM185.4,309.81c-.2.3-.4.6-.6.89,1.03,1.3,1.25,1.32,2.42.23-.59-1.26-.64-1.29-1.82-1.12ZM191.03,317.64h1.74c.79-2.78-3.5-1.81-1.74,0ZM207.06,326.88c.34-.51.65-.98.95-1.43-.37-.7-.87-.9-1.59-.67-.61,1.11-1.01,1.84.63,2.1ZM194.37,324.49c-.22.73-.17,1.51-.33,2.29.81.3,1.41.1,2.01-.52-.48-.7-.62-1.55-1.68-1.76ZM216.95,299.06c.29-1.31-2.29-1.7-2.38-.31.42.85,1.91,1.38,2.38.31ZM196.55,316.95c.74,1.15,2.02.84,2.19-.47-.11-1.58-1.89-.55-2.19.47ZM199.83,314.03c.28.2.57.39.9.62.47-.49.89-.93,1.35-1.41-.99-1.48-2.28-.81-2.26.79ZM204.96,323.25c-.24-.57-.44-1.04-.63-1.51-1.1-.25-1.04.8-1.53,1.2.68,1.14,1.23,1.24,2.16.31ZM215.74,327.19c-.33.28-.6.52-.89.76.47-.17.88-.32,1.24-.45-.09-.12-.2-.23-.35-.31ZM219.42,306.8c-.96-.35-1.22.59-1.96.81,1.47,1.79,2.95,1.62,1.96-.81ZM204.98,328.47q-.4-.51-1.23-.77c-.36.33-.91.46-1.23.99.62,1.46,1.89.97,2.46-.22ZM198.12,329.91c.33-.25.61-.47.89-.69-.3-.89-1.11-1.19-1.66-1.75-1.11.67-.28,1.02.21,1.55.15.36.06.79.56.89ZM210.46,317.3c1.48-.95-1.25-2.01-1.94-.95.42,1.01,1.27.79,1.94.95ZM164.52,343.1s0,0,0,0l-.05.74s.51-.16,1.43-.43c-.09-.14-.18-.28-.26-.42-.41.04-.76.08-1.11.12ZM164.99,336.7l-.16,2.26c.13.05.26.1.41.15,1.2-.7.83-2.03-.25-2.41ZM201.75,331.85c.84-1.73-1.38-1.55-2.15-.7.05.24.1.47.15.7-.11.47.05.78.34.95.72-.23,1.44-.46,2.14-.68.02-.08.03-.17.02-.27h-.5ZM171.77,331.85q-.04-1.03-1.19-1.28c-.58.3-1.57.52-1.06,1.28.14,1.37,2.26,1.38,2.25,0ZM188.65,333.24c.17-.43.55-.64.96-.7.06-.29.1-.49.14-.69h.5c-.21-.92-3.25-1.38-2.5,0h.5c-.04.63-.62,1.17.39,1.39ZM173.47,339.67c-.95.49-1.13,1.17-.9,1.69.78-.24,1.6-.49,2.46-.75-.39-.72-.46-1.56-1.55-.94ZM180.72,336.24c.22-.77.92-1.38.24-2-.4-.31-.83-1.1-1.4-.67-1.86,1.62-.69,2.3,1.15,2.66ZM185.13,336.15c1.78.99,2.31-1.18,1.31-2.39-1.36-.06-2.71,1.32-1.31,2.39ZM177.88,338.64c1.33-1.51-2.45-3.59-2.26-.1,1.02.93,1.29.69,2.26.1ZM166.84,340.08c-.06.89-.28,1.79.78,2.26,2.26-.48,1.28-3.85-.78-2.26ZM182.81,336.36c-.62.57-1.01.92-1.48,1.49.1.29.24.52.41.69.73-.23,1.47-.45,2.21-.68,0-.45-.3-.98-1.14-1.49ZM169.61,337.33c-.33.99.54,1.87,1.52,1.84.45-.09.61-.22.53-.74.93-1.7-.83-1.73-2.04-1.1ZM190.64,335.55c.12.03.24.07.36.11.64-.2,1.27-.4,1.9-.6.02-.04.05-.07.07-.12-.68-1.44-2.99-1.29-2.33.61ZM173.46,333.79c-.21.39-.42.79-.7,1.3.15.99,1.59,1.59,1.89.47-.03-.82.14-2.1-1.19-1.78ZM166.65,334.94c1.36,1.68,1.93,1.26,2.31-.7-1.02-.51-2.02-.6-2.31.7Z"/>
      </g>
      <g class="cls-8">
        <path class="cls-5" d="M244.16,285.31c1.49-.15,2.71.17,3.1,1.75-1.72,1.75-3.37.51-3.1-1.75ZM260.83,282.57c-.64.34-1.44.47-1.59,1.41.72.91,1.83.94,2.61,1.65,1.11-.96.36-2.81-1.02-3.05ZM228.14,309.39c-1.35.69-2.87,2.06-.66,2.76,1.77.33,2.51-2.27.66-2.76ZM244.28,298.67c.36,1.23.7,1.29,1.87,1.46.38-.43.75-.85,1.14-1.3-.61-1.69-2.27-1.9-3.02-.16ZM258.93,303.77c-1.12-1.19-1.87,0-2.69.86.48,1.38,1.17,1.5,2.42,1.16.48-.62.33-1.32.27-2.01ZM259.9,288.92c-.26.34-.85.6-.57,1.12.83,1.74,2.46,1.01,2.88-.66-.61-.95-1.48-1.65-2.31-.46ZM238.17,312.47c-1.91-.54-3.47.62-2,2.43,1.48.4,2.39-1.06,2-2.43ZM247.56,296.29c.73,1.6,2.29.6,2.59-.75-.7-1.76-3.21-1.18-2.59.75ZM224.24,300.61l-.14,2.23c.15.11.32.2.53.29,1.09-.79,1.34-1.13,1.59-2.25-.73-.55-1.46-.54-1.98-.26ZM248.89,300.29c-.75-.33-1.08.78-1.5,1.2-.43.77.75,1.5,1.43,1.65,1.28-.67,1.64-2.3.07-2.85ZM252.15,294.15c.34-.43.69-.88,1.07-1.37-1.15-3.68-4.63.75-1.07,1.37ZM230.63,303.14c.53-.36,1.07-.74,1.66-1.15-.62-3.55-4.69.01-1.66,1.15ZM240.96,310.27c-1.05-1.82-2.97-.28-2.44,1.51,1.19.18,2.88.16,2.44-1.51ZM266.9,278.88l-.04-2.57c-.29-.04-.62,0-.99.16-1.32.54.08,1.83,1.03,2.4ZM240.62,297.54c-.85.02-1.45.65-2.3.89.29.67.51,1.09.87,1.69,1.41.43,2.82-1.41,1.44-2.58ZM262.54,310.29c.65-.3,1.25-.58,1.8-.85-.66-.34-1.6-.09-1.8.85ZM246.64,305.85c.61-1.15.15-3.22-1.41-2.45-1.44.97-.46,2.82,1.41,2.45ZM253.29,310.69c-.21-.58-.36-1.17-1.05-1.44-.45.17-.91.34-1.34.51-1.21,2.32,1.36,2.87,2.4.93ZM232.85,311.53h1.69c2.04-2.75-3.5-3.26-1.69,0ZM231.35,312.14c-.6.69-1.19.23-1.78.49-.05.41-.11.85-.18,1.44,1.38,1.94,3.69-.4,1.96-1.93ZM254.49,303.2c2.01-.69,1.81-3.01-.43-2.81-.23.54-.43.97-.68,1.47.14.63.58.97,1.11,1.34ZM238.2,296.62c.05-1.57-1.41-2.67-2.66-1.44-.8,1.57,1.65,2.29,2.66,1.44ZM250.01,283.93c-.26-1.89-2.53-2.28-2.39-.26.15.23.41.4.31.75.16,1.53,1.82.5,2.08-.49ZM256.6,287.17c.87.85,2.3.92,2.66-.46-.47-1.65-3.55-1.57-2.66.46ZM267.32,307.54v-.96c-1.01-.37-2.28.37-1.49,1.98.02.01.05.02.07.03.67-.4,1.16-.75,1.42-1.05ZM255.3,278.92c.47-.27.46-.87.7-1.3-.18-.55-.4-1.03-.95-1.33l-1.46.75c-.64.82.23,1.7,1.7,1.89ZM223.06,323.77s.02.01.03.02c0-.02,0-.04,0-.05l-.03.03ZM223.26,324.38s.05.02.08.03c.2-.06.43-.14.72-.23-.38-.07-.75-.16-.97-.39,0,.22-.13.47.17.59ZM225.07,309.13c2.02-1.51.07-3.34-1.21-2.28l-.1,1.59c.29.42.64.75,1.31.68ZM237.53,308.76c.92-.86.41-2.22-.73-2.52-2.48.66-1.06,2.94.73,2.52ZM230.91,309.14c1.19-.76,1.45-1.94.17-2.79-1.27.01-1.53.75-1.64,1.65.47.35.62,1.08,1.47,1.14ZM259.66,308.43c.58.31,1.19.63,1.9.45,1.5-2-.83-3.37-1.99-1.6.25.45-.17.81.09,1.15ZM253.71,289.92c0,1.64,2.24,1.36,2.28-.09.25-1.87-2.91-1.58-2.28.09ZM233.88,300.17c1.11-.71,1.78-2.23.08-2.71-.87.19-1.41.69-1.64,1.51q.48.61,1.57,1.2ZM257.61,276.07s.15.05.22.07c.38-.22.76-.43,1.16-.66.01-.41-.01-.81-.04-1.2l-2.17,1.12c.12.4.71.27.83.66ZM265.14,292.54q-.69-.73-1.59-1.09-.7.55-1.06,1.47c.15.28.32.6.46.87,1.07.47,2.15-.17,2.19-1.25ZM238.29,287.05c1.1,1.03,2.78,1.32,2.91-.63-.83-1.09-2.96-1.08-2.91.63ZM267.08,291.11l-.03-2.37c-.08-.02-.14-.04-.23-.05-2.08.02-1.18,2.18.26,2.42ZM232.91,303.45c-1.48,1.95,1.69,3.37,2.35,1.24-.61-.84-1.23-1.5-2.35-1.24ZM255.96,283.15c-.42-.34-.78-.61-1.12-.88-1.18.5-1.25.7-.76,2.64,1.48.29,2.2-.29,1.88-1.76ZM266.99,284.89l-.03-2.15c-.42-.11-.92-.02-1.39.34-.95.92.34,1.84,1.42,1.81ZM252.99,287.24c-.35-.83-.15-1.8-1.28-2.02-2.82.9-.62,3.52,1.28,2.02ZM244.59,311.25c2.12,1.86,3.58-1.32,1.41-1.97-.34.34-.63.44-1.15.51-.07.55-.54.95-.26,1.46ZM226.17,314.02c-.3-.54-.44-1.18-1.11-1.52-3.33.47-.42,4.17,1.11,1.52ZM247.27,292.36c-.45-.32-.84-.61-1.31-.94-3.49,1.16.18,4.4,1.31.94ZM255.59,308.63c1.27-1.97-1.84-3.24-2.28-.59.53,1.24,1.26.61,2.28.59ZM226.82,315.87c-.84,1.57,1.64,2.93,2.18,1.23.17-1.39-1.07-2.51-2.18-1.23ZM240.84,303.51c-2.25-.57-3.31,2.13-.67,2.41.33-.35.66-.72,1.07-1.15-.15-.46-.28-.88-.39-1.25ZM242.83,300.27c-.8.34-.84.37-1.17,1.14-.67,3.04,4.5.76,1.17-1.14ZM234.01,293.96c2.4-1.86-.47-3.69-1.68-1.35.1,1.06.88,1.14,1.68,1.35ZM261.08,294.24c-1.64.55-2.32,2.35-.46,2.49,1.53.39,1.77-1.9.46-2.49ZM243.18,294.52c-.44.1-.9.2-1.33.3-.14.43-.25.78-.36,1.11,1.14,2.57,3.7.36,1.68-1.41ZM264.88,287.59c.4-1.14-.26-1.74-1.1-2.35-.74.39-1.11,1.01-1.42,1.72.58.92,1.58.73,2.51.63ZM226.84,303.87c-.11.37-.22.75-.32,1.09q.56.64,1.58.93c.52-.29.77-.93,1.13-1.37-.59-1.21-.84-1.27-2.4-.65ZM227.9,291.46c-1.36-.02-1.92,2.27-.37,2.42,1.61.05,2.03-2.28.37-2.42ZM257.55,300.1c1.58-.07,2.02-2.72.18-2.49-1.79.15-1.3,1.86-.18,2.49ZM226.15,295.56c-.27-.64-.95-.9-1.54-.85l-.13,2.09c.77.25,1.66-.15,1.67-1.25ZM253.12,298.16c-.39-.28-.82-.59-1.28-.91-3.01,1.16.94,4.67,1.28.91ZM226.24,323.2c.09.07.17.13.26.18.73-.24,1.55-.51,2.44-.8-1.01-1.82-2.24-1.21-2.7.62ZM249.93,307.16c-.89.1-1.2-.71-1.9-.15-2.1,1.93,2.85,3.43,1.9.15ZM260.2,300.51c-.56.28-.75.73-.93,1.23,1.16,3.1,4.35-.8.93-1.23ZM253,280.69q-.34-.94-.97-1.41c-1.57-.02-1.98,1.31-.88,2.32.96.32,1.45-.22,1.85-.91ZM266.82,272.91l-.03-2.31c-.24.08-.46.12-.79.19-.64,1.23,0,2.09.82,2.12ZM258.87,279.99c-.82-.98-2.31.16-2.35,1.16.2,1.14,2.26,1.03,2.39-.01-.36-.37.16-.72-.04-1.14ZM244.26,307.49c-.32-.35-.64-.7-.98-1.06-1.31.17-1.93.97-1.22,2.15,1.41.39,1.72.2,2.2-1.09ZM230.88,294.65c-.78.05-1.46.06-1.36,1.18.97,2.79,4.12-.81,1.36-1.18ZM231.03,290.94c1.24-.66,1.2-2.24.28-2.45l-1.56.8c-.47.78.3,1.31,1.28,1.65ZM238.59,293.29c1.05.58,1.45.57,2.41-.1-.16-.4-.18-.84-.15-1.28-.34-.21-.65-.4-1.03-.63-.35.73-1.62.82-1.23,2ZM262.55,299.23c1.08.7,1.68.65,2.65-.21-.16-1.83-3.06-1.72-2.65.21ZM258.93,310.35c-.17-.27-.39-.52-.59-.77-4.06.1-.27,4.73.59.77ZM262.43,275.22c.78.56,1.49.43,2.19.39.59-2.51-2.02-3.13-2.19-.39ZM241.69,284.49c.49.69,1.15.45,1.8.38.34-.46.56-.93.73-1.41-.61-.7-1.41-.41-2.02-.55l-.04.02c-.6.43-.47,1.02-.47,1.57ZM261.31,278.87c.14-.53.3-.93.59-1.33q-.6-1.01-2.05-.73c-1.11,1.35.17,1.98,1.46,2.06ZM262.79,280.11c-.02.49-.08.96-.22,1.41.64.68,1.92.62,2.01-.43.73-.74.27-1.39-.64-1.59-.41.22-.77.41-1.15.61ZM238.52,316.7c.99,2.57,3.91.04,1.54-1.22q-.88.41-1.54,1.22ZM258.93,293.32c-.31-.92.12-1.82-1.19-1.92-.48.35-.81.79-.95,1.36.14,1.09,1.48,1.72,2.14.56ZM248.73,288.78c-1.71.15-1.13,1.39-.27,2.28,1.85-.61,2.55-1.61.27-2.28ZM235.19,286.74c-.06-.05-.11-.1-.17-.15l-1.75.9c.75.21,1.48.21,1.91-.75ZM227.19,297.68c-1.36,2,.38,2.37,1.97,1.3-.17-.96-1.08-1.96-1.97-1.3ZM244.61,316.89c.1.1.21.16.31.23.68-.24,1.36-.49,2.04-.73,0-.03.02-.05.02-.07-.97-1.43-2.49-1.45-2.38.58ZM246.44,281.9c-.05-.33-.09-.57-.13-.8.15-.18.31-.36.47-.56l-1.76.9c.21.33.64.54,1.41.46ZM232.23,320.03c-.56-.69-1.06-1.88-1.99-1.03-.43.3-.94.7-.66,1.28.57.76,2,.49,2.65-.25ZM266.1,296.67c.39.12.76.1,1.07-.02l-.03-2.02c-1.01.25-2.56,1.46-1.04,2.03ZM241.8,289.16v1.07c2.84,2.22,2.78-3.59,0-1.07ZM222.81,323.85c.08-.03.16-.05.24-.1-.13-.17-.19-.35-.2-.53l-.04.63ZM223.06,323.77s.03-.04.03-.04c-.02,0-.03.01-.05.02,0,0,0,.01.01.02ZM222.96,321.83s-.02,0-.03,0l-.06.91c.05-.29.12-.59.09-.9ZM235.16,316.57c-.34-.62-.6-.95-1.15-1.41-.88.47-1.53,1.19-1.06,2.27.8-.51,1.99.54,2.22-.86ZM262.95,305.51c.82.73,1.64.15,1.74-.82-.47-2.01-3.32-.63-1.74.82ZM251.6,303.52c-.33.33-.71.7-1.12,1.11,1.13,2.68,4.02-.54,1.12-1.11ZM225.01,321.24c.3-.41.52-.7.67-.9.8-3.98-3.98-.23-.67.9ZM236.7,318.46c-.37.25-.76.52-1.15.79.11.43.28.74.47.97.55-.19,1.12-.38,1.69-.58-.07-.37-.37-.79-1-1.18ZM248.72,314.91c.31-.11.62-.21.9-.31.18-.38.35-.74.51-1.08-.22-.37-.59-.3-.9-.36-.35-.06-.62-.45-1.09-.2-.1.29-.22.63-.35,1.01.2.4.51.71.93.94ZM236.57,301.36c-.16-.26-.29-.45-.41-.65-1.38.72-.22,1.83.55,2.44,1.26-.24,1.47-2.18-.14-1.79ZM253.65,296.03c.77-.07,1.92.57,2.29-.25-.07-1.68-2.67-1.77-2.29.25ZM254.14,313.23c-.1.18-.22.4-.29.62.59-.22,1.16-.44,1.73-.66-.49-.48-1.19-.77-1.43.05ZM266.76,303.22c.18-.18.35-.35.49-.53l-.03-1.8c-.29,0-.68.05-1.19.18.2.93-.34,1.63.72,2.14ZM236.07,290.28c.33.27.63.52.93.77.35-.28.66-.54.98-.8.26-1.1-.5-1.31-1.41-1.47-.2.49-.73.95-.49,1.49ZM236.56,288.78s0,0,0,0c0-.01.01-.02.02-.04l-.03.03ZM242.83,312.47c-.54.25-.93.64-1.27,1.23.77.15,1.01.99,1.7.92.59-1.03.54-1.5-.42-2.15ZM236.11,288.65c.1.27.24.23.43.12-.14-.13-.23-.3-.43-.12ZM236.55,288.79s.03-.04.03-.04c-.02,0-.03.02-.04.02,0,0,0,0,.01.01ZM254.33,296.79c-.06-.16-.14-.22-.31-.16.08.17.1.31.31.16Z"/>
      </g>
    </g>
  </g>
  <g id="Lines">
    <path class="cls-5" d="M204.11,40.71c-3.29.97-6.57,1.95-9.86,2.92.27.27.53.53.8.8,1.78-7.27,2.82-14.69,3.11-22.17.02-.48-.57-.83-.98-.56-7.09,4.62-12.94,10.92-17.01,18.34h1.12c-1.84-4.22-4.19-8.15-7.02-11.78-.25-.32-.85-.21-1.02.13-2.45,4.8-3.46,10.17-2.86,15.53.33-.19.65-.37.98-.56-4.42-2.33-8.84-4.67-13.27-7-.74-.39-1.4.73-.66,1.12,4.42,2.33,8.84,4.67,13.27,7,.39.21,1.04-.04.98-.56-.57-5.14.34-10.27,2.69-14.87-.34.04-.68.09-1.02.13,2.76,3.54,5.03,7.4,6.82,11.51.2.45.91.39,1.12,0,3.96-7.23,9.63-13.37,16.54-17.87-.33-.19-.65-.37-.98-.56-.28,7.36-1.31,14.66-3.06,21.82-.12.47.31.95.8.8,3.29-.97,6.57-1.95,9.86-2.92.8-.24.46-1.49-.35-1.25h0Z"/>
    <path class="cls-5" d="M213.32,40.04c.84,0,.84-1.3,0-1.3s-.84,1.3,0,1.3h0Z"/>
  </g>
</svg>